<svg xmlns="http://www.w3.org/2000/svg" width="31.2" height="31.2" viewBox="0 0 31.2 31.2"><path fill="#F8DC22" d="M19 14.4c-.7.7-1.7.7-2.4 0-.4-.4-.6-1-.5-1.5.1-.3.2-.6.5-.9L28.1.5c.7-.7 1.7-.7 2.4 0s.7 1.7 0 2.4L19 14.4z"/><path fill="#F8DB25" d="M15.5 15.5l.7-2.8 2.1 2"/><path fill="none" stroke="#F8DB25" stroke-width="2.835" stroke-miterlimit="10" d="M27.4 11.5V22c0 4.1-3.3 7.4-7.4 7.4H9.8c-4.1 0-7.4-3.3-7.4-7.4V10.6c0-4.1 3.3-7.4 7.4-7.4H20"/><path fill="#F8DB25" d="M20 4.6l2.9-2.8H20M28.8 8.8L26 11.5h2.8"/></svg>