<svg xmlns="http://www.w3.org/2000/svg" width="32" height="32" viewBox="0 0 32 32"><path fill="#F7DA23" d="M17.9 7.7c0 .9-.8 1.7-1.7 1.7-.9 0-1.7-.7-1.7-1.7 0-.9.7-1.7 1.7-1.7.9 0 1.7.8 1.7 1.7z"/><path fill="#F7DA23" d="M31.6 23.2l-7.8-12-.1-.1c-.6-.7-.9-.8-1-.9-.1 0-.3-.1-.9-.2.4-1.1.7-2.1.7-2.8 0-3.3-2.8-6-6.4-6-3.5 0-6.4 2.7-6.4 6 0 .7.3 1.7.7 2.8-.3.1-.5.1-.7.2-.1 0-.4.2-.9.7L.8 23C0 24.4.2 25.1.4 25.5c.5.9 1.5 1.1 2.3 1.1h26.2c1.3 0 2.2-.4 2.7-1.2.6-.9.1-1.9 0-2.2zM16.1 3.8c2.1 0 3.7 1.6 3.7 3.6 0 1.7-2.6 6.4-3.1 7.4l-.7 1.3-.7-1.4c-.5-1-2.9-5.7-2.9-7.3 0-2 1.7-3.6 3.7-3.6zm-12.3 20l7.2-11c.1-.1.2-.1.4 0h.1c1.2 2.9 2.8 5.8 3.2 6.7l1.2 2.3 1.2-2.2c.5-.9 2.2-3.9 3.5-6.8h.8l.1.1 7.1 10.9H3.8z"/></svg>