<svg xmlns="http://www.w3.org/2000/svg" width="32" height="32" viewBox="0 0 32 32"><path fill="#575756" d="M30.3 15c-.1-.1-1.1-.6-2-1-1.8-.9-2.9-1.4-3.5-1.7V7.2v-.4c0-.8.1-2.4-1.4-3-.2 0-1.2-.6-2.1-1C16.9.6 16.9.6 16.4.6c-.8 0-7.9 3.6-7.9 3.6-.4.3-.7.8-.7 1.3v6.8c-2.2.9-6.8 3.2-6.8 3.2-.4.3-.7.8-.7 1.3v.3c-.1 8.2.1 8.4.6 8.9.2.2.5.4 5 2.9.6.4 1.1.6 1.2.7.3.2.8.3 1.2.3 0 0 .1 0 .2.1.4-.1.7-.1 4.5-2.3 1.2-.7 2.1-1.2 2.7-1.6.4.3 1.4.8 4.8 2.7.6.3 1.1.5 1.2.6.3.2.8.3 1.2.3.1 0 .1 0 .1.1.4-.1.8-.1 4.5-2.3 4-2.4 4-2.4 4.1-3.2.1-1.3.1-5.4.1-5.9V18c0-.8.1-2.4-1.4-3zm-8.5-6.8c0 2.1-.1 3.4-.1 4.1-.5.3-1.2.6-1.9 1-1.2.6-2.4 1.1-3.2 1.6v-4h.1c.4-.2 3.1-1.6 5.1-2.7zm-5.5-4.6c.8.4 2.5 1.2 3.6 1.8.3.1.5.2.7.3-1.6.8-3.8 2-4.5 2.3H16c-.4-.2-2.7-1.4-4.3-2.3 1.6-.7 3.7-1.7 4.6-2.1zM4.2 17.1c1.5-.8 3.7-1.8 4.5-2.1.8.4 2.5 1.2 3.6 1.8.2.1.4.2.6.2 0 0 .1 0 .1.1-1.6.8-3.8 2-4.5 2.3h-.1c-.3-.2-2.6-1.4-4.2-2.3zm10 6.5c-1.2.7-3.7 2.3-5.2 3.1v-4.4c.1 0 .1 0 .2-.1.4-.1 3.1-1.5 5.1-2.6 0 1.5-.1 3.1-.1 4zm4.7-6.7c.4-.2.9-.5 1.5-.7.9-.4 1.6-.7 2.1-1 .4-.1.7-.2.9-.3.8.4 2.5 1.2 3.6 1.8l.6.3c-1.6.8-3.8 2-4.5 2.3 0-.1 0-.1-.1-.1-.3-.2-2.5-1.4-4.1-2.3zm10 6.5c-1.2.7-3.7 2.3-5.2 3.1v-4.4c.1 0 .1 0 .2-.1.4-.1 3.1-1.5 5.1-2.6 0 1.5-.1 3-.1 4z"/></svg>