<svg xmlns="http://www.w3.org/2000/svg" width="31.2" height="31.2" viewBox="0 0 31.2 31.2"><path fill="#F8DB25" d="M3.1 9.6c0 .8-.6 1.4-1.4 1.4-.8 0-1.4-.6-1.4-1.4 0-.8.6-1.4 1.4-1.4.7 0 1.4.6 1.4 1.4zM30.1 14c0 .8-.6 1.4-1.4 1.4-.8 0-1.4-.6-1.4-1.4 0-.8.6-1.4 1.4-1.4.7 0 1.4.6 1.4 1.4z"/><path fill="none" stroke="#F8DB25" stroke-width="2.835" stroke-miterlimit="10" d="M1.5 9.8l4-2.6s.9-.7 1.3-.6c.4.1.9 1 .9 1l8.2 12.7s.7 1 1.1 1.1c.5.1 1.6-.8 1.6-.8l9.8-6.5"/><path fill="none" stroke="#F8DB25" stroke-width="2.835" stroke-miterlimit="10" d="M25.5 8.9c.5.8.3 1.9-.5 2.5l-5.4 3.5c-.8.5-1.9.3-2.5-.5L13.7 9c-.5-.8-.3-1.9.5-2.5L19.6 3c.8-.5 1.9-.3 2.5.5l3.4 5.4z"/><path fill="#F8DB25" d="M23.4 23.9c0 1-.8 1.8-1.8 1.8s-1.8-.8-1.8-1.8.8-1.8 1.8-1.8 1.8.8 1.8 1.8zM31 18.6c0 1-.8 1.8-1.8 1.8s-1.8-.8-1.8-1.8.8-1.8 1.8-1.8 1.8.8 1.8 1.8z"/><path fill="none" stroke="#F8DB25" stroke-width="2.126" stroke-miterlimit="10" d="M6.2 27.1c2.5-1.7 5.1-3.4 7.6-5M5 22.8c2.1-1.4 4.2-2.8 6.4-4.2M4.2 18.1C5.8 17 7.4 15.9 9 14.9"/></svg>