<svg xmlns="http://www.w3.org/2000/svg" width="32" height="32" viewBox="0 0 32 32"><ellipse fill="#F7DA23" cx="1.6" cy="10.1" rx="1.4" ry="1.4"/><path fill="#F7DA23" d="M30.6 14.6c0 .8-.6 1.4-1.4 1.4-.8 0-1.4-.6-1.4-1.4 0-.8.6-1.4 1.4-1.4.8 0 1.4.6 1.4 1.4z"/><path fill="#F7DA23" d="M17.6 23.5h-.4c-.7-.1-1.3-.7-2-1.7L6.7 8.5l-.1.1-4.2 2.7L.8 8.9l4.1-2.7c1.4-1 2.2-.9 2.4-.8.7.2 1.3.8 1.9 1.7l8.4 13c.1.1.2.2.2.3.2-.1.3-.2.4-.3l.1-.1 10-6.6 1.6 2.4-10 6.6c-.8.7-1.6 1.1-2.3 1.1z"/><path fill="#F7DA23" d="M19.3 17c-1.1 0-2.1-.6-2.7-1.5L13 10.1c-1-1.5-.6-3.5.9-4.5L19.4 2c.5-.3 1.1-.5 1.8-.5 1.1 0 2.1.6 2.7 1.5l3.6 5.5c.5.7.6 1.6.5 2.4-.2.8-.7 1.6-1.4 2L21 16.5c-.5.4-1.1.5-1.7.5zm1.9-12.7c-.1 0-.1 0-.2.1L15.4 8c-.2.1-.2.4-.1.6l3.6 5.5c.1.2.4.3.6.1l5.5-3.6c.1-.1.2-.2.2-.3 0-.1 0-.2-.1-.3l-3.6-5.5c-.1-.1-.2-.2-.3-.2z"/><circle fill="#F7DA23" cx="22.3" cy="24.6" r="1.8"/><path fill="#F7DA23" d="M31.9 19.1c0 1-.8 1.8-1.8 1.8s-1.8-.8-1.8-1.8.8-1.8 1.8-1.8c.9 0 1.8.8 1.8 1.8zM13.487 21.51l1.544 2.336-7.84 5.184-1.544-2.336zM5.9 24.6l-1.6-2.4c2.2-1.4 4.3-2.8 6.5-4.3l1.6 2.4c-2.1 1.5-4.3 2.9-6.5 4.3zM5.1 19.8l-1.6-2.4c1.7-1.1 3.3-2.2 5-3.3l1.6 2.4c-1.6 1.1-3.3 2.2-5 3.3z"/></svg>