<svg xmlns="http://www.w3.org/2000/svg" width="32" height="32" viewBox="0 0 32 32"><path fill="#F7DA23" d="M21.5.5h-12c-1.9.2-3.6.9-5 2 0 0-.1 0-.1.1-.1.2-.2.3-.4.5-.1 0-.1.1-.2.2l-.3.3c-.1.1-.2.2-.3.4l-.1.1C2 5.5 1.2 7.2 1 9v14.3c.2 1.9.9 3.6 2 4.9l.1.1c.1.1.2.3.4.4l.3.3.2.2.4.4s.1 0 .1.1c1.4 1.1 3.1 1.9 5 2h12c5.3 0 9.5-4.2 9.5-9.4V9.9C31 4.7 26.8.5 21.5.5zm6.6 20.8v1.1c0 3.6-3 6.6-6.6 6.6l-11-.1c-3.6 0-6.6-3-6.6-6.6V10c0-3.6 3-6.6 6.6-6.6 0 0 8.3-.2 11 0 2.6.2 6.6 2.9 6.6 6.5v11.4z"/><path fill="#F7DA23" d="M24.8 11.2c0 .8-.7 1.4-1.6 1.4H9.1c-.9 0-1.6-.6-1.6-1.4 0-.8.7-1.4 1.6-1.4h14.1c.9-.1 1.6.6 1.6 1.4zM24.6 16.5c0 .8-.7 1.4-1.6 1.4H8.9c-.9 0-1.6-.6-1.6-1.4 0-.8.7-1.4 1.6-1.4H23c.9-.1 1.6.6 1.6 1.4zM24.6 21.6c0 .8-.7 1.4-1.6 1.4H8.9c-.9 0-1.6-.6-1.6-1.4 0-.8.7-1.4 1.6-1.4H23c.9 0 1.6.6 1.6 1.4z"/></svg>