<svg xmlns="http://www.w3.org/2000/svg" width="32" height="32" viewBox="0 0 32 32"><path fill="#575756" d="M13.1 22.8C6.5 22.8 1 18.6 1 13.5c0-5.1 5.4-9.2 12.1-9.2 6.7 0 12.1 4.1 12.1 9.2s-5.4 9.3-12.1 9.3zm0-15.6C8 7.2 3.9 10 3.9 13.5s4.1 6.4 9.2 6.4 9.2-2.9 9.2-6.4c.1-3.5-4.1-6.3-9.2-6.3z"/><path fill="#575756" d="M26 12.4c.9 5.5-1.9 8.2-5.3 9.8-2.8 1.3-5.5 1.3-8.3 1.4 1.9 2 4.1 2.7 7.6 2.7 5.9 0 10.7-3.5 10.7-7.8.1-2.6-1.9-4.7-4.7-6.1zM4 18.2c.1.7-.1 2.5-2.3 3.9.3.2 1.9.3 3.3-.2 1.6-.5 2.4-2.2 2.4-2.3 0-.3-.9-.5-1.2-.5-.5-.1-.9-.3-1.4-.5-.2-.1-.6-.2-.8-.3h-.1.1"/><path fill="#575756" d="M27 21.7c-.1.7.1 2.5 2.3 3.9-.3.3-1.9.4-3.3-.1-1.5-.5-2.4-2.2-2.4-2.3 0-.3.9-.5 1.2-.5.5-.1.9-.3 1.4-.5.2-.1.6-.2.8-.3h0"/></svg>