<svg xmlns="http://www.w3.org/2000/svg" width="32" height="32" viewBox="0 0 32 32"><path fill="#575756" d="M25 2.2H7c-2.3 0-4.2 1.9-4.2 4.2v20.1c0 2.3 1.9 4.2 4.2 4.2h18c2.3 0 4.2-1.9 4.2-4.2V6.4c0-2.3-1.9-4.2-4.2-4.2zM7 28.1c-1 0-1.7-.8-1.7-1.7s.8-1.7 1.7-1.7 1.7.8 1.7 1.7S8 28.1 7 28.1zm0-6c-1 0-1.7-.8-1.7-1.7 0-1 .8-1.7 1.7-1.7s1.7.8 1.7 1.7c0 .9-.7 1.7-1.7 1.7zM7 16c-1 0-1.7-.8-1.7-1.7 0-1 .8-1.7 1.7-1.7s1.7.8 1.7 1.7C8.7 15.2 8 16 7 16zm5.9 12.1c-1 0-1.7-.8-1.7-1.7s.8-1.7 1.7-1.7 1.7.8 1.7 1.7-.7 1.7-1.7 1.7zm0-6c-1 0-1.7-.8-1.7-1.7 0-1 .8-1.7 1.7-1.7s1.7.8 1.7 1.7c0 .9-.7 1.7-1.7 1.7zm0-6.1c-1 0-1.7-.8-1.7-1.7 0-1 .8-1.7 1.7-1.7s1.7.8 1.7 1.7c0 .9-.7 1.7-1.7 1.7zm6.2 12.1c-1 0-1.7-.8-1.7-1.7s.8-1.7 1.7-1.7 1.7.8 1.7 1.7-.8 1.7-1.7 1.7zm0-6c-1 0-1.7-.8-1.7-1.7 0-1 .8-1.7 1.7-1.7s1.7.8 1.7 1.7c0 .9-.8 1.7-1.7 1.7zm0-6.1c-1 0-1.7-.8-1.7-1.7 0-1 .8-1.7 1.7-1.7s1.7.8 1.7 1.7c0 .9-.8 1.7-1.7 1.7zm7.2 10.8c0 .8-.6 1.4-1.4 1.4-.8 0-1.4-.6-1.4-1.4v-6.5c0-.8.6-1.4 1.4-1.4.8 0 1.4.6 1.4 1.4v6.5zM25 16c-1 0-1.7-.8-1.7-1.7 0-1 .8-1.7 1.7-1.7s1.7.8 1.7 1.7c0 .9-.7 1.7-1.7 1.7zm-.2-6H7c-1.5 0-1.7-1.2-1.7-2.7 0-1.5.2-2.7 1.7-2.7h18c1.5 0 1.8 1.2 1.8 2.7-.1 1.5-.5 2.7-2 2.7z"/></svg>