<svg xmlns="http://www.w3.org/2000/svg" width="32" height="32" viewBox="0 0 32 32"><path fill="#FFF" d="M.6 10.6l3.9-2.8 8.9 4.7-4.2 3.1"/><path fill="#F7DA23" d="M31.9 14.4c0-.9 0-1.1-4.5-3 .8-1.1 1.6-2.2 1.8-2.7 0 0 .4-.5.4-1.1 0-.4-.2-.6-.2-.6-.8-1.2-9.6-4.7-10.6-4.7 0 0-.4 0-.6.1s-.5.7-.5.7c-.2.3-1 1.7-1.7 2.9-3-3.2-3.1-3.2-3.8-3.2H12l-.2.1c-.6.2-3.3 1.4-5.3 2.3-5 2.3-5.4 2.5-5.5 3.4-.1.6.7 1.4.7 1.4l2 2.2C.2 14.4-.2 14.9.2 16c.3.7 2.5 2.1 4.8 3.4 0 1.3 0 2.5.1 3.1.1.8.1.8 5.3 3.9 4.9 3 5.4 3 5.8 3h.2c.5 0 1-.2 1.5-.3.2-.1.8-.4 1.7-.9 5.6-3.1 6.3-3.5 6.6-3.8.4-.4.7-.7.8-6.3 4.9-2.6 4.9-2.8 4.9-3.7zm-20.8-3c1-.5 2.3-1.1 3.3-1.6v5.4L9 12.5l2.1-1.1zm6-1.5c1.4.6 3.1 1.5 4.6 2.2l-4.6 2.5V9.9zm2.6-4.7c1.6.6 4.9 2 6.5 2.8-.4.6-1 1.4-1.5 2.1L18.6 7c.4-.5.8-1.2 1.1-1.8zm-7.9.8c.3.3.7.8 1.2 1.3l-6.5 3.4c-.1 0-.2.1-.3.1L4.7 9.2c1.9-1 5.5-2.6 7.1-3.2zm-6.1 7.8l6.7 3.7-2.1 1.7-6.9-3.8 2.3-1.6zM8 21.6v-.7c1.2.6 2.1.9 2.4.9.5 0 .8 0 4.6-2.9v6.8c-2.1-1.1-5.6-3.3-7-4.1zm12.9-3.2l-2.5-1.5 6.4-3.5 2.8 1.2c-2.3 1.3-5.5 3.2-6.7 3.8z"/></svg>