<svg xmlns="http://www.w3.org/2000/svg" width="32" height="32" viewBox="0 0 32 32"><ellipse fill="#575756" cx="12.6" cy="13.5" rx="12.2" ry="9"/><path fill="#575756" d="M26.4 11.3c1.1 6.3-2.2 9.4-6.1 11.2C17 24 14 24 10.8 24.1c2.2 2.2 4.7 3.1 8.8 3.1 6.8 0 12.2-4 12.2-9 .1-2.9-2.2-5.2-5.4-6.9zM4.2 18.1c.1.8-.2 2.9-2.7 4.5.4.3 2.2.4 3.9-.1 1.8-.6 2.8-2.5 2.8-2.7 0-.3-1.1-.5-1.3-.6-.5-.2-1.1-.4-1.6-.6-.3-.1-.7-.2-.9-.4h-.1.1"/><path fill="#575756" d="M28.1 22.9c-.1.8.2 2.9 2.7 4.5-.4.3-2.2.4-3.9-.2-1.8-.6-2.8-2.5-2.8-2.7 0-.3 1.1-.5 1.3-.6.5-.2 1.1-.4 1.6-.6.3-.1.7-.2.9-.4h0"/></svg>