<svg xmlns="http://www.w3.org/2000/svg" width="32" height="32" viewBox="0 0 32 32"><g fill="#575756"><path d="M13.1 22.8c6.7 0 12.1-4.2 12.1-9.3 0-5.1-5.4-9.2-12.1-9.2C6.4 4.3 1 8.4 1 13.5c0 2.3 1.1 4.3 2.9 6-.2.8-.8 1.8-2.2 2.6.3.2 1.9.3 3.3-.2.5-.2.9-.4 1.3-.8 1.9 1.1 4.3 1.7 6.8 1.7zm0-15.6c5.1 0 9.3 2.8 9.2 6.3 0 3.5-4.1 6.4-9.2 6.4S3.9 17 3.9 13.5 8 7.2 13.1 7.2z"/><path d="M27.6 24c1.9-1.4 3.1-3.3 3.1-5.5.1-2.6-1.9-4.7-4.7-6.1.9 5.5-1.9 8.2-5.3 9.8-2.8 1.3-5.5 1.3-8.3 1.4 1.9 2 4.1 2.7 7.6 2.7 2 0 3.8-.4 5.4-1.1l.6.3c1.4.5 3 .4 3.3.1-.8-.5-1.3-1.1-1.7-1.6z"/></g></svg>