<svg xmlns="http://www.w3.org/2000/svg" width="32" height="32" viewBox="0 0 32 32"><path fill="#585857" d="M22.7 20.8h1V28h-1z"/><path fill="#585857" d="M22.9 29.7c-.4 0-.9-.1-1.2-.3-.1-.1-.6-.3-1.2-.6-4.5-2.5-4.8-2.7-5.1-2.9-.5-.5-.8-.7-.6-8.9v-.3c0-.5.3-1 .7-1.3 0 0 7.1-3.6 7.9-3.6.4 0 .5 0 4.9 2.2.9.4 1.9.9 2 1 1.5.6 1.4 2.2 1.4 3v.4c0 .5 0 4.6-.1 5.9-.1.8-.1.8-4.1 3.2-3.7 2.2-4.1 2.2-4.5 2.3 0-.1 0-.1-.1-.1zM17.7 24c1 .6 3.1 1.8 4.2 2.3.4.2.8.4 1 .6 1.1-.5 4.6-2.6 6-3.5 0-1 .1-2.5.1-4-2 1.1-4.7 2.5-5.1 2.6-.2.1-.4.1-.7.1-.4 0-.8-.1-1.2-.3 0 0-2.4-1.2-4.3-2.3V24zm1.1-7.1c1.6.9 3.9 2.1 4.2 2.3.1 0 .1 0 .1.1.7-.3 2.9-1.5 4.5-2.3l-.6-.3c-1.1-.6-2.8-1.4-3.6-1.8-.9.2-3.1 1.2-4.6 2z"/><path fill="#575756" d="M16.4 17.1l6.8 3.9-.2 7.3-6.8-3.8"/><path fill="#585857" d="M8.3 29.9c-.4 0-.9-.1-1.2-.3-.1-.1-.6-.3-1.2-.7-4.5-2.5-4.8-2.7-5-2.9-.5-.5-.7-.7-.6-8.9v-.3c0-.5.3-1 .7-1.3 0 0 7-3.5 7.8-3.5.4 0 .5 0 4.9 2.2.9.4 1.9 1 2.1 1 1.5.6 1.4 2.2 1.4 3v.4c0 .8 0 4.7-.1 5.9-.1.8-.1.8-4.1 3.2-3.8 2.2-4.1 2.2-4.5 2.3-.1-.1-.2-.1-.2-.1zm-5.2-5.7c1 .6 3.1 1.7 4.1 2.3.4.2.8.4 1 .6 1.1-.5 4.6-2.6 6-3.5 0-.9.1-2.5.1-4-2 1.1-4.7 2.5-5.1 2.6-.2.1-.4.1-.7.1-.4 0-.8-.1-1.2-.3 0 0-2.4-1.2-4.3-2.3 0 1.7 0 3.6.1 4.5zm1.1-7.1c1.6.9 3.9 2.1 4.2 2.3h.1c.7-.3 2.9-1.5 4.5-2.3-.2-.1-.4-.2-.7-.3-1.1-.6-2.8-1.4-3.6-1.8-.8.3-3 1.3-4.5 2.1z"/><path fill="#575756" d="M2 17.7l6.5 3.5-.3 7.1-6.6-3.8"/><path fill="#585857" d="M8 21h1v7.2H8zM15.5 18.2c-.3 0-.6-.1-.8-.2-.2-.1-1-.5-1.9-1-3.9-2-4.2-2.1-4.4-2.4-.6-.4-.7-.6-.6-8.8v-.3c0-.5.3-1 .7-1.3 0 0 7.1-3.6 7.9-3.6.5 0 .5 0 4.9 2.2.9.4 1.9 1 2.1 1 1.5.6 1.4 2.2 1.4 3v.4c0 3.4 0 5.3-.1 6.1-.1.9-.1.9-4.3 2.9-3.4 1.7-4 1.9-4.4 1.9-.2.1-.3.1-.5.1zm-4.9-5.4c.8.4 2.4 1.3 3.4 1.7.7.3 1.2.6 1.6.8 1.1-.4 4.6-2.2 6.1-3 0-.7.1-2 .1-4.1-2 1.1-4.7 2.5-5.1 2.6-.2.1-.4.1-.7.1-.4 0-.8-.1-1.2-.3 0 0-2.4-1.2-4.3-2.3.1 1.9.1 3.6.1 4.5zm1.1-7.1c1.6.9 3.9 2.1 4.3 2.3h.1c.7-.3 2.9-1.5 4.5-2.3-.2-.1-.4-.2-.7-.3-1.1-.6-2.8-1.4-3.6-1.8-.9.4-3 1.4-4.6 2.1z"/><path fill="#585857" d="M15.6 9.6h1v7.2h-1z"/><path fill="#575756" d="M9.4 5.9l6.7 3.6-.4 7.1-6.2-3.2"/></svg>