<svg xmlns="http://www.w3.org/2000/svg" width="150" height="150"><path style="-inkscape-font-specification:Gentium Book Basic" d="M88 59.63c0-2.854-.422-5.542-1.264-8.066-.843-2.58-2.108-4.83-3.794-6.75s-3.767-3.428-6.243-4.526c-2.477-1.097-5.348-1.646-8.615-1.646-1.317 0-2.74.357-4.267 1.07-1.528.658-2.95 1.674-4.268 3.045-1.317 1.317-2.423 2.99-3.32 5.02-.842 1.976-1.263 4.308-1.263 6.997 0 2.853.395 5.57 1.185 8.148.79 2.524 2.002 4.746 3.635 6.666 1.633 1.866 3.688 3.348 6.164 4.445 2.53 1.097 5.507 1.646 8.93 1.646 1.53 0 3.057-.33 4.585-.99 1.58-.657 3.003-1.645 4.268-2.962 1.264-1.37 2.29-3.045 3.082-5.02.79-2.03 1.185-4.39 1.185-7.078m-12.012 50.782c-2.213-.275-4.268-.577-6.164-.906-1.844-.33-3.61-.686-5.295-1.07-3.268 1.975-5.85 3.76-7.746 5.35-1.896 1.646-3.345 3.1-4.346 4.362-.95 1.317-1.555 2.47-1.818 3.457-.263 1.042-.395 2.003-.395 2.88 0 2.14.685 4.17 2.055 6.09 1.422 1.922 3.345 3.595 5.77 5.022 2.422 1.426 5.24 2.55 8.455 3.374 3.213.88 6.61 1.318 10.194 1.318 3.37 0 6.4-.466 9.087-1.4 2.74-.932 5.032-2.194 6.876-3.785 1.844-1.59 3.266-3.484 4.267-5.68 1-2.194 1.502-4.553 1.502-7.077 0-1.372-.317-2.662-.95-3.87-.63-1.206-1.79-2.33-3.476-3.373-1.633-.988-3.9-1.893-6.796-2.716-2.898-.768-6.64-1.427-11.222-1.976m25.447-54.155c0 4.225-.922 8.093-2.766 11.605-1.793 3.457-4.163 6.447-7.114 8.97-2.95 2.47-6.348 4.418-10.194 5.845-3.846 1.372-7.77 2.058-11.775 2.057h-.475c-2.318 2.086-3.898 3.814-4.74 5.186-.79 1.37-1.187 2.222-1.187 2.55 0 .605.237 1.208.712 1.812.474.55 1.396 1.097 2.766 1.646 1.422.55 3.398 1.097 5.927 1.646 2.58.494 5.927 1.015 10.036 1.564 5.9.713 10.774 1.728 14.62 3.045 3.846 1.263 6.902 2.745 9.167 4.445 2.266 1.647 3.846 3.485 4.742 5.515.896 2.03 1.343 4.143 1.343 6.337 0 2.854-.553 5.624-1.66 8.313-1.106 2.69-2.633 5.185-4.583 7.49-1.95 2.36-4.24 4.5-6.875 6.42-2.582 1.92-5.374 3.566-8.377 4.938-3.003 1.372-6.138 2.44-9.404 3.21-3.268.768-6.482 1.152-9.643 1.152-2.58 0-5.268-.192-8.06-.576-2.74-.33-5.453-.878-8.14-1.646-2.634-.768-5.163-1.756-7.587-2.963-2.37-1.153-4.478-2.58-6.322-4.28-1.79-1.646-3.214-3.54-4.267-5.68-1.053-2.084-1.58-4.47-1.58-7.16 0-1.426.263-2.908.79-4.444.527-1.48 1.528-3.1 3.003-4.855 1.528-1.7 3.636-3.566 6.322-5.597 2.687-2.03 6.217-4.28 10.59-6.75-3.266-1.26-5.61-2.632-7.033-4.114-1.37-1.536-2.055-3.1-2.055-4.69 0-.495.158-1.153.474-1.977.37-.823 1.002-1.81 1.898-2.962.948-1.153 2.213-2.442 3.793-3.87 1.634-1.48 3.69-3.126 6.165-4.937-2.74-.823-5.242-1.948-7.507-3.375-2.266-1.48-4.215-3.237-5.848-5.267-1.58-2.085-2.82-4.417-3.715-6.996-.895-2.58-1.343-5.377-1.343-8.395 0-4.005.896-7.79 2.687-11.358 1.79-3.62 4.16-6.75 7.11-9.383 2.952-2.688 6.323-4.8 10.117-6.337C65.293 30.797 69.27 30 73.38 30c3.32 0 6.4.494 9.246 1.48 2.898.934 5.532 2.25 7.903 3.952 5.215-.603 9.56-1.454 13.038-2.55 3.53-1.1 6.402-2.06 8.614-2.882L114 32.634c-.58 1.426-1.212 2.88-1.897 4.362-.632 1.48-1.5 2.908-2.608 4.28-1.896.33-3.82.63-5.77.905-1.895.22-4.03.385-6.4.495 1.317 1.975 2.318 4.115 3.003 6.42.738 2.304 1.107 4.69 1.107 7.16" font-size="165.17" font-family="Gentium Book Basic"/></svg>