<svg xmlns="http://www.w3.org/2000/svg" width="32" height="32" viewBox="0 0 32 32"><ellipse fill="#575756" cx="12.4" cy="13.7" rx="12.4" ry="9"/><path fill="#575756" d="M26.5 11.6c1.1 6.4-2.3 9.5-6.1 11.4-3.3 1.5-6.4 1.5-9.6 1.6 2.2 2.3 4.8 3.1 8.9 3.1 6.8 0 12.4-4.1 12.4-9-.2-3.1-2.4-5.5-5.6-7.1zM4 18.4c0 .8-.2 3-2.7 4.6.4.3 2.2.4 3.9-.2C7 22.2 8 20.4 8 20.1c0-.3-1.1-.5-1.4-.6-.6-.2-1.1-.4-1.6-.6-.3-.1-.7-.2-.9-.4H4h.1"/><path fill="#575756" d="M28.2 23.2c-.1.8.2 2.9 2.7 4.6-.4.3-2.2.4-3.9-.2-1.8-.6-2.8-2.5-2.8-2.7 0-.3 1.1-.5 1.4-.6.6-.2 1.1-.4 1.6-.6.3-.1.7-.2.9-.4h0"/></svg>