<svg xmlns="http://www.w3.org/2000/svg" width="32" height="32" viewBox="0 0 32 32"><path fill="#F8DB22" d="M19.4 14.6c-.7.7-1.8.7-2.4 0-.4-.4-.6-1-.5-1.6.1-.3.2-.6.5-.9L28.5.6c.7-.7 1.8-.7 2.4 0 .7.7.7 1.8 0 2.4L19.4 14.6z"/><path fill="#F7DA23" d="M15.8 15.7l.8-2.8 2.1 2"/><path fill="#F7DA23" d="M20.9 31.8h-11c-5.2 0-9.5-4.2-9.5-9.5V10C.4 4.8 4.6.5 9.9.5h11v2.9h-11c-3.6 0-6.6 3-6.6 6.6v12.4c0 3.6 3 6.6 6.6 6.6h11c3.6 0 6.6-3 6.6-6.6V11h2.9v11.4c0 5.2-4.2 9.4-9.5 9.4z"/><path fill="#F7DA23" d="M20.9 3.4l3-2.8h-3M30.4 8.3L27.5 11h2.9"/></svg>