<svg xmlns="http://www.w3.org/2000/svg" width="32" height="32" viewBox="0 0 32 32"><path fill="#F8DB22" d="M19 15.7c-.3.3-.9.3-1.2 0-.2-.2-.3-.5-.2-.8 0-.2.1-.3.2-.4l5.8-5.8c.3-.3.9-.3 1.2 0 .3.3.3.9 0 1.2L19 15.7z"/><path fill="#F7DA23" d="M17.3 16.3l.3-1.5 1.1 1.1"/><path fill="none" stroke="#F7DA23" stroke-width="1.417" stroke-miterlimit="10" d="M23.3 14.2v5.3c0 2.1-1.7 3.7-3.7 3.7h-5.1c-2.1 0-3.7-1.7-3.7-3.7v-5.8c0-2.1 1.7-3.7 3.7-3.7h5.1"/><path fill="#F7DA23" d="M19.5 10.7L21 9.3h-1.5M24 12.9l-1.4 1.3H24"/></svg>