<?xml version="1.0" encoding="utf-8"?>
<!-- Generator: Adobe Illustrator 16.0.4, SVG Export Plug-In . SVG Version: 6.00 Build 0)  -->
<!DOCTYPE svg PUBLIC "-//W3C//DTD SVG 1.1//EN" "http://www.w3.org/Graphics/SVG/1.1/DTD/svg11.dtd">
<svg version="1.1" id="Слой_1" xmlns="http://www.w3.org/2000/svg" xmlns:xlink="http://www.w3.org/1999/xlink" x="0px" y="0px"
	 width="31.2px" height="31.2px" viewBox="0 0 31.2 31.2" enable-background="new 0 0 31.2 31.2" xml:space="preserve">
<g>
	<path fill="#F8DB25" d="M3.1,9.6c0,0.8-0.6,1.4-1.4,1.4c-0.8,0-1.4-0.6-1.4-1.4c0-0.8,0.6-1.4,1.4-1.4C2.4,8.2,3.1,8.8,3.1,9.6z"/>
	<path fill="#F8DB25" d="M30.1,14c0,0.8-0.6,1.4-1.4,1.4c-0.8,0-1.4-0.6-1.4-1.4c0-0.8,0.6-1.4,1.4-1.4C29.4,12.6,30.1,13.2,30.1,14
		z"/>
	<path fill="none" stroke="#F8DB25" stroke-width="2.8346" stroke-miterlimit="10" d="M1.5,9.8l4-2.6c0,0,0.9-0.7,1.3-0.6
		c0.4,0.1,0.9,1,0.9,1l8.2,12.7c0,0,0.7,1,1.1,1.1c0.5,0.1,1.6-0.8,1.6-0.8l9.8-6.5"/>
	<path fill="none" stroke="#F8DB25" stroke-width="2.8346" stroke-miterlimit="10" d="M25.5,8.9c0.5,0.8,0.3,1.9-0.5,2.5l-5.4,3.5
		c-0.8,0.5-1.9,0.3-2.5-0.5L13.7,9c-0.5-0.8-0.3-1.9,0.5-2.5L19.6,3c0.8-0.5,1.9-0.3,2.5,0.5L25.5,8.9z"/>
	<path fill="#F8DB25" d="M23.4,23.9c0,1-0.8,1.8-1.8,1.8c-1,0-1.8-0.8-1.8-1.8c0-1,0.8-1.8,1.8-1.8C22.6,22.1,23.4,22.9,23.4,23.9z"
		/>
	<path fill="#F8DB25" d="M31,18.6c0,1-0.8,1.8-1.8,1.8c-1,0-1.8-0.8-1.8-1.8c0-1,0.8-1.8,1.8-1.8C30.2,16.8,31,17.6,31,18.6z"/>
	<path fill="none" stroke="#F8DB25" stroke-width="2.126" stroke-miterlimit="10" d="M6.2,27.1c2.5-1.7,5.1-3.4,7.6-5"/>
	<path fill="none" stroke="#F8DB25" stroke-width="2.126" stroke-miterlimit="10" d="M5,22.8c2.1-1.4,4.2-2.8,6.4-4.2"/>
	<path fill="none" stroke="#F8DB25" stroke-width="2.126" stroke-miterlimit="10" d="M4.2,18.1C5.8,17,7.4,15.9,9,14.9"/>
</g>
</svg>
