<?xml version="1.0" encoding="utf-8"?>
<!-- Generator: Adobe Illustrator 16.0.4, SVG Export Plug-In . SVG Version: 6.00 Build 0)  -->
<!DOCTYPE svg PUBLIC "-//W3C//DTD SVG 1.1//EN" "http://www.w3.org/Graphics/SVG/1.1/DTD/svg11.dtd">
<svg version="1.1" id="Слой_1" xmlns="http://www.w3.org/2000/svg" xmlns:xlink="http://www.w3.org/1999/xlink" x="0px" y="0px"
	 width="31.2px" height="31.2px" viewBox="0 0 31.2 31.2" enable-background="new 0 0 31.2 31.2" xml:space="preserve">
<g>
	<path fill="#F8DC22" d="M19,14.4c-0.7,0.7-1.7,0.7-2.4,0l0,0c-0.4-0.4-0.6-1-0.5-1.5c0.1-0.3,0.2-0.6,0.5-0.9L28.1,0.5
		c0.7-0.7,1.7-0.7,2.4,0l0,0c0.7,0.7,0.7,1.7,0,2.4L19,14.4z"/>
	<polygon fill="#F8DB25" points="15.5,15.5 16.2,12.7 18.3,14.7 	"/>
	<path fill="none" stroke="#F8DB25" stroke-width="2.8346" stroke-miterlimit="10" d="M27.4,11.5V22c0,4.1-3.3,7.4-7.4,7.4H9.8
		c-4.1,0-7.4-3.3-7.4-7.4V10.6c0-4.1,3.3-7.4,7.4-7.4H20"/>
	<polygon fill="#F8DB25" points="20,4.6 22.9,1.8 20,1.8 	"/>
	<polygon fill="#F8DB25" points="28.8,8.8 26,11.5 28.8,11.5 	"/>
</g>
</svg>
