<?xml version="1.0" encoding="utf-8"?>
<!-- Generator: Adobe Illustrator 16.0.4, SVG Export Plug-In . SVG Version: 6.00 Build 0)  -->
<!DOCTYPE svg PUBLIC "-//W3C//DTD SVG 1.1//EN" "http://www.w3.org/Graphics/SVG/1.1/DTD/svg11.dtd">
<svg version="1.1" id="Слой_1" xmlns="http://www.w3.org/2000/svg" xmlns:xlink="http://www.w3.org/1999/xlink" x="0px" y="0px"
	 width="32px" height="32px" viewBox="0 0 32 32" enable-background="new 0 0 32 32" xml:space="preserve">
<path fill="#393938" d="M25.8,7.5H22c0.1-0.1,0.2-0.2,0.3-0.3c0.8-1,1.2-2.2,1-3.5c-0.1-1.1-0.7-2-1.6-2.6c-0.6-0.4-1.2-0.6-1.9-0.6
	c-1.5,0-3,0.9-3.7,2.4c-0.1,0.2-0.2,0.4-0.2,0.6c-0.1-0.2-0.1-0.4-0.2-0.6C15,1.5,13.5,0.6,12,0.6c-0.7,0-1.4,0.2-1.9,0.6
	C9.2,1.8,8.6,2.7,8.4,3.8C8.3,5,8.7,6.3,9.5,7.3c0.1,0.1,0.2,0.2,0.3,0.3H5.9C4.3,7.5,3,8.8,3,10.4v17.7C3,29.7,4.3,31,5.9,31h20
	c1.6,0,2.9-1.3,2.9-2.9V10.4C28.7,8.8,27.4,7.5,25.8,7.5z M25.8,17.9H17v-7.4h8.8V17.9z M17.9,3.8c0.4-0.9,1.2-1.3,1.9-1.3
	c0.3,0,0.6,0.1,0.8,0.2c0.5,0.4,0.7,0.9,0.8,1.3c0.1,0.7-0.1,1.4-0.6,1.9c-0.5,0.6-2.2,1-3.3,1.2C17.4,6.2,17.4,4.7,17.9,3.8z
	 M10.4,4.1c0.1-0.4,0.2-0.9,0.8-1.3c0.2-0.2,0.5-0.2,0.8-0.2c0.6,0,1.5,0.4,1.9,1.3c0.4,0.9,0.5,2.4,0.4,3.3C13.1,7,11.5,6.6,11,6
	C10.5,5.5,10.3,4.7,10.4,4.1z M14.8,10.5v7.4H6v-7.4H14.8z M6,20.1h8.9V28H6V20.1z M17,28v-7.9h8.8V28H17z"/>
</svg>
