<?xml version="1.0" encoding="utf-8"?>
<!-- Generator: Adobe Illustrator 16.0.4, SVG Export Plug-In . SVG Version: 6.00 Build 0)  -->
<!DOCTYPE svg PUBLIC "-//W3C//DTD SVG 1.1//EN" "http://www.w3.org/Graphics/SVG/1.1/DTD/svg11.dtd">
<svg version="1.1" id="Слой_1" xmlns="http://www.w3.org/2000/svg" xmlns:xlink="http://www.w3.org/1999/xlink" x="0px" y="0px"
	 width="32px" height="32px" viewBox="0 0 32 32" enable-background="new 0 0 32 32" xml:space="preserve">
<path fill="#4F4F4F" d="M30.4,9.5H12.2l-1.3-4.4H1.6v2.8h7.1L13.2,23h1.2c-0.1,0.2-0.2,0.5-0.2,0.7c0,0.9,0.8,1.7,1.7,1.7
	c0.9,0,1.7-0.8,1.7-1.7c0-0.3-0.1-0.5-0.2-0.7h9c-0.1,0.2-0.2,0.5-0.2,0.7c0,0.9,0.8,1.7,1.7,1.7c0.9,0,1.7-0.8,1.7-1.7
	c0-0.3-0.1-0.5-0.2-0.7h0.9v-2.8h-15l-0.1-0.4l15.1-2.6V9.5z"/>
</svg>
