<?xml version="1.0" encoding="utf-8"?>
<!-- Generator: Adobe Illustrator 16.0.4, SVG Export Plug-In . SVG Version: 6.00 Build 0)  -->
<!DOCTYPE svg PUBLIC "-//W3C//DTD SVG 1.1//EN" "http://www.w3.org/Graphics/SVG/1.1/DTD/svg11.dtd">
<svg version="1.1" id="Слой_1" xmlns="http://www.w3.org/2000/svg" xmlns:xlink="http://www.w3.org/1999/xlink" x="0px" y="0px"
	 width="32px" height="32px" viewBox="0 0 32 32" enable-background="new 0 0 32 32" xml:space="preserve">
<path fill="#575756" d="M30.3,15c-0.1-0.1-1.1-0.6-2-1c-1.8-0.9-2.9-1.4-3.5-1.7c0-1,0-2.7,0-5.1c0-0.1,0-0.3,0-0.4
	c0-0.8,0.1-2.4-1.4-3c-0.2,0-1.2-0.6-2.1-1c-4.4-2.2-4.4-2.2-4.9-2.2c-0.8,0-7.9,3.6-7.9,3.6C8.1,4.5,7.8,5,7.8,5.5
	c0,0.1,0,0.2,0,0.3c0,3.3,0,5.3,0,6.5C5.6,13.2,1,15.5,1,15.5c-0.4,0.3-0.7,0.8-0.7,1.3c0,0.1,0,0.2,0,0.3c-0.1,8.2,0.1,8.4,0.6,8.9
	c0.2,0.2,0.5,0.4,5,2.9c0.6,0.4,1.1,0.6,1.2,0.7c0.3,0.2,0.8,0.3,1.2,0.3c0,0,0.1,0,0.2,0.1c0.4-0.1,0.7-0.1,4.5-2.3
	c1.2-0.7,2.1-1.2,2.7-1.6c0.4,0.3,1.4,0.8,4.8,2.7c0.6,0.3,1.1,0.5,1.2,0.6c0.3,0.2,0.8,0.3,1.2,0.3c0.1,0,0.1,0,0.1,0.1
	c0.4-0.1,0.8-0.1,4.5-2.3c4-2.4,4-2.4,4.1-3.2c0.1-1.3,0.1-5.4,0.1-5.9c0-0.1,0-0.3,0-0.4C31.7,17.2,31.8,15.6,30.3,15z M21.8,8.2
	c0,2.1-0.1,3.4-0.1,4.1c-0.5,0.3-1.2,0.6-1.9,1c-1.2,0.6-2.4,1.1-3.2,1.6v-4c0,0,0.1,0,0.1,0C17.1,10.7,19.8,9.3,21.8,8.2z
	 M16.3,3.6c0.8,0.4,2.5,1.2,3.6,1.8c0.3,0.1,0.5,0.2,0.7,0.3c-1.6,0.8-3.8,2-4.5,2.3c0,0,0,0-0.1,0c-0.4-0.2-2.7-1.4-4.3-2.3
	C13.3,5,15.4,4,16.3,3.6z M4.2,17.1c1.5-0.8,3.7-1.8,4.5-2.1c0.8,0.4,2.5,1.2,3.6,1.8c0.2,0.1,0.4,0.2,0.6,0.2c0,0,0.1,0,0.1,0.1
	c-1.6,0.8-3.8,2-4.5,2.3c0,0,0,0-0.1,0C8.1,19.2,5.8,18,4.2,17.1z M14.2,23.6c-1.2,0.7-3.7,2.3-5.2,3.1v-4.4c0.1,0,0.1,0,0.2-0.1
	c0.4-0.1,3.1-1.5,5.1-2.6C14.3,21.1,14.2,22.7,14.2,23.6z M18.9,16.9c0.4-0.2,0.9-0.5,1.5-0.7c0.9-0.4,1.6-0.7,2.1-1
	c0.4-0.1,0.7-0.2,0.9-0.3c0.8,0.4,2.5,1.2,3.6,1.8c0.2,0.1,0.4,0.2,0.6,0.3c-1.6,0.8-3.8,2-4.5,2.3c0-0.1,0-0.1-0.1-0.1
	C22.7,19,20.5,17.8,18.9,16.9z M28.9,23.4c-1.2,0.7-3.7,2.3-5.2,3.1v-4.4c0.1,0,0.1,0,0.2-0.1c0.4-0.1,3.1-1.5,5.1-2.6
	C29,20.9,28.9,22.4,28.9,23.4z"/>
</svg>
