<?xml version="1.0" encoding="utf-8"?>
<!-- Generator: Adobe Illustrator 16.0.4, SVG Export Plug-In . SVG Version: 6.00 Build 0)  -->
<!DOCTYPE svg PUBLIC "-//W3C//DTD SVG 1.1//EN" "http://www.w3.org/Graphics/SVG/1.1/DTD/svg11.dtd">
<svg version="1.1" id="Слой_1" xmlns="http://www.w3.org/2000/svg" xmlns:xlink="http://www.w3.org/1999/xlink" x="0px" y="0px"
	 width="32px" height="32px" viewBox="0 0 32 32" enable-background="new 0 0 32 32" xml:space="preserve">
<g>
	<path fill="#424242" d="M10.2,14v3.3h5.5c0,0-0.2,3-4.1,4c-3.2,0.8-7-1.4-7.3-5.3C4,12.1,6.7,9.8,9.1,9.4c2.8-0.4,5,1.2,5,1.2
		l2.4-2.5c0,0-3-2.8-7.5-2.3c-1.6,0.2-8.4,2-8.5,9.8c-0.1,4,3.1,7.7,6.2,8.9c3.1,1.1,6.8,0.6,9.2-1.2c4.2-3,3.4-9.1,3.4-9.1L10.2,14
		z"/>
	<polygon fill="#424242" points="30.9,14 28.1,14 28.1,11.2 25.4,11.2 25.4,14 22.6,14 22.6,16.8 25.4,16.8 25.4,19.5 28.1,19.5 
		28.1,16.8 30.9,16.8 	"/>
</g>
</svg>
