<?xml version="1.0" encoding="utf-8"?>
<!-- Generator: Adobe Illustrator 16.0.4, SVG Export Plug-In . SVG Version: 6.00 Build 0)  -->
<!DOCTYPE svg PUBLIC "-//W3C//DTD SVG 1.1//EN" "http://www.w3.org/Graphics/SVG/1.1/DTD/svg11.dtd">
<svg version="1.1" id="Слой_1" xmlns="http://www.w3.org/2000/svg" xmlns:xlink="http://www.w3.org/1999/xlink" x="0px" y="0px"
	 width="32px" height="32px" viewBox="0 0 32 32" enable-background="new 0 0 32 32" xml:space="preserve">
<g>
	<path fill="#616161" d="M27.4,18.1c0-0.7-0.5-1.2-1.1-1.2h-1.4c-0.6,0-1.1,0.6-1.1,1.2v7c0,0.7,0.5,1.2,1.1,1.2h0
		c0,0.3,0,0.5-0.1,0.8c-0.3,0.5-1.3,1.4-5.2,1.5c-0.2-0.2-0.5-0.4-0.8-0.4h-5.4c-0.7,0-1.2,0.7-1.2,1.5v0.7c0,0.9,0.6,1.5,1.2,1.5
		h5.4c0.3,0,0.6-0.2,0.8-0.5c4-0.1,6.5-1.1,7.5-2.9c0.8-1.3,0.6-2.7,0.3-3.6V18.1z"/>
	<path fill="#616161" d="M8.1,18.2C8.1,17.5,7.6,17,7,17H5.6c-0.6,0-1.1,0.5-1.2,1.1v7c0,0.7,0.6,1.2,1.2,1.2h1.5
		c0.6,0,1.1-0.6,1.1-1.2H8.1V18.2z"/>
	<path fill="#616161" d="M28.1,18.1v6.8c1.7,0,3.1-1.5,3.1-3.4S29.8,18.1,28.1,18.1z"/>
	<path fill="#616161" d="M0.8,21.5c0,1.9,1.4,3.4,3.1,3.4v-6.8C2.2,18.1,0.8,19.6,0.8,21.5z"/>
	<path fill="#616161" d="M30.2,16.5L30.2,16.5C30.2,16.5,30.2,16.4,30.2,16.5c0-0.1,0-0.1,0-0.1c0,0,0,0,0,0c0-4.3-1.9-8.2-4.8-11
		c0.1-0.9-0.2-1.8-1.1-2.4C19-0.3,12.6-0.2,7.4,3.3C6.6,3.9,6.2,4.7,6.3,5.5C3.5,8,1.7,11.7,1.5,15.7c-0.1,0.2-0.1,0.4-0.1,0.6
		c0,0.7,0.6,1.3,1.4,1.3c0.7,0,1.3-0.5,1.4-1.1h0c0-3.5,1.4-6.6,3.6-8.8C8.4,8,9.1,8,9.9,7.5c3.8-2.5,8.1-2.7,12-0.2
		c0.6,0.4,1.2,0.4,1.8,0.3c2.3,2.2,3.7,5.4,3.7,8.9h0c0.1,0.7,0.6,1.2,1.4,1.2S30.1,17.2,30.2,16.5z"/>
</g>
</svg>
