<?xml version="1.0" encoding="utf-8"?>
<!-- Generator: Adobe Illustrator 16.0.4, SVG Export Plug-In . SVG Version: 6.00 Build 0)  -->
<!DOCTYPE svg PUBLIC "-//W3C//DTD SVG 1.1//EN" "http://www.w3.org/Graphics/SVG/1.1/DTD/svg11.dtd">
<svg version="1.1" id="Слой_1" xmlns="http://www.w3.org/2000/svg" xmlns:xlink="http://www.w3.org/1999/xlink" x="0px" y="0px"
	 width="32px" height="32px" viewBox="0 0 32 32" enable-background="new 0 0 32 32" xml:space="preserve">
<path fill="#CA4C40" d="M17.5,1.6c-0.7-1.2-2.8-1.6-3.6,0.3L0.4,26.5c0,1.4,1.2,2.6,2.6,2.6h25.7c1.4,0,2.6-1.2,2.6-2.6L17.5,1.6z
	 M15.8,25.1c-0.9,0-1.7-0.7-1.7-1.7c0-0.9,0.7-1.7,1.7-1.7c0.9,0,1.7,0.7,1.7,1.7C17.5,24.4,16.7,25.1,15.8,25.1z M17.2,20.6h-2.9
	l-0.8-9.5h4.5L17.2,20.6z"/>
</svg>
