<?xml version="1.0" encoding="utf-8"?>
<!-- Generator: Adobe Illustrator 16.0.4, SVG Export Plug-In . SVG Version: 6.00 Build 0)  -->
<!DOCTYPE svg PUBLIC "-//W3C//DTD SVG 1.1//EN" "http://www.w3.org/Graphics/SVG/1.1/DTD/svg11.dtd">
<svg version="1.1" id="Слой_1" xmlns="http://www.w3.org/2000/svg" xmlns:xlink="http://www.w3.org/1999/xlink" x="0px" y="0px"
	 width="32px" height="32px" viewBox="0 0 32 32" enable-background="new 0 0 32 32" xml:space="preserve">
<path fill="#575756" d="M25,2.2H7c-2.3,0-4.2,1.9-4.2,4.2v20.1c0,2.3,1.9,4.2,4.2,4.2h18c2.3,0,4.2-1.9,4.2-4.2V6.4
	C29.2,4.1,27.3,2.2,25,2.2z M7,28.1c-1,0-1.7-0.8-1.7-1.7s0.8-1.7,1.7-1.7s1.7,0.8,1.7,1.7S8,28.1,7,28.1z M7,22.1
	c-1,0-1.7-0.8-1.7-1.7c0-1,0.8-1.7,1.7-1.7s1.7,0.8,1.7,1.7C8.7,21.3,8,22.1,7,22.1z M7,16c-1,0-1.7-0.8-1.7-1.7
	c0-1,0.8-1.7,1.7-1.7s1.7,0.8,1.7,1.7C8.7,15.2,8,16,7,16z M12.9,28.1c-1,0-1.7-0.8-1.7-1.7s0.8-1.7,1.7-1.7s1.7,0.8,1.7,1.7
	S13.9,28.1,12.9,28.1z M12.9,22.1c-1,0-1.7-0.8-1.7-1.7c0-1,0.8-1.7,1.7-1.7s1.7,0.8,1.7,1.7C14.6,21.3,13.9,22.1,12.9,22.1z
	 M12.9,16c-1,0-1.7-0.8-1.7-1.7c0-1,0.8-1.7,1.7-1.7s1.7,0.8,1.7,1.7C14.6,15.2,13.9,16,12.9,16z M19.1,28.1c-1,0-1.7-0.8-1.7-1.7
	s0.8-1.7,1.7-1.7s1.7,0.8,1.7,1.7S20,28.1,19.1,28.1z M19.1,22.1c-1,0-1.7-0.8-1.7-1.7c0-1,0.8-1.7,1.7-1.7s1.7,0.8,1.7,1.7
	C20.8,21.3,20,22.1,19.1,22.1z M19.1,16c-1,0-1.7-0.8-1.7-1.7c0-1,0.8-1.7,1.7-1.7s1.7,0.8,1.7,1.7C20.8,15.2,20,16,19.1,16z
	 M26.3,26.8c0,0.8-0.6,1.4-1.4,1.4c-0.8,0-1.4-0.6-1.4-1.4v-6.5c0-0.8,0.6-1.4,1.4-1.4c0.8,0,1.4,0.6,1.4,1.4V26.8z M25,16
	c-1,0-1.7-0.8-1.7-1.7c0-1,0.8-1.7,1.7-1.7s1.7,0.8,1.7,1.7C26.7,15.2,26,16,25,16z M24.8,10H7c-1.5,0-1.7-1.2-1.7-2.7
	c0-1.5,0.2-2.7,1.7-2.7h18c1.5,0,1.8,1.2,1.8,2.7C26.7,8.8,26.3,10,24.8,10z"/>
</svg>
