<?xml version="1.0" encoding="utf-8"?>
<!-- Generator: Adobe Illustrator 16.0.4, SVG Export Plug-In . SVG Version: 6.00 Build 0)  -->
<!DOCTYPE svg PUBLIC "-//W3C//DTD SVG 1.1//EN" "http://www.w3.org/Graphics/SVG/1.1/DTD/svg11.dtd">
<svg version="1.1" id="Слой_1" xmlns="http://www.w3.org/2000/svg" xmlns:xlink="http://www.w3.org/1999/xlink" x="0px" y="0px"
	 width="32px" height="32px" viewBox="0 0 32 32" enable-background="new 0 0 32 32" xml:space="preserve">
<g>
	<ellipse fill="#F7DA23" cx="1.6" cy="10.1" rx="1.4" ry="1.4"/>
</g>
<g>
	<path fill="#F7DA23" d="M30.6,14.6c0,0.8-0.6,1.4-1.4,1.4c-0.8,0-1.4-0.6-1.4-1.4c0-0.8,0.6-1.4,1.4-1.4
		C30,13.2,30.6,13.8,30.6,14.6z"/>
</g>
<g>
	<path fill="#F7DA23" d="M17.6,23.5c-0.1,0-0.3,0-0.4,0c-0.7-0.1-1.3-0.7-2-1.7L6.7,8.5c0,0,0,0,0,0c0,0-0.1,0.1-0.1,0.1l-4.2,2.7
		L0.8,8.9l4.1-2.7c1.4-1,2.2-0.9,2.4-0.8C8,5.6,8.6,6.2,9.2,7.1l8.4,13c0.1,0.1,0.2,0.2,0.2,0.3c0.2-0.1,0.3-0.2,0.4-0.3l0.1-0.1
		l10-6.6l1.6,2.4l-10,6.6C19.1,23.1,18.3,23.5,17.6,23.5z"/>
</g>
<g>
	<path fill="#F7DA23" d="M19.3,17c-1.1,0-2.1-0.6-2.7-1.5L13,10.1c-1-1.5-0.6-3.5,0.9-4.5L19.4,2c0.5-0.3,1.1-0.5,1.8-0.5
		c1.1,0,2.1,0.6,2.7,1.5l3.6,5.5c0.5,0.7,0.6,1.6,0.5,2.4c-0.2,0.8-0.7,1.6-1.4,2L21,16.5C20.5,16.9,19.9,17,19.3,17z M21.2,4.3
		c-0.1,0-0.1,0-0.2,0.1L15.4,8c-0.2,0.1-0.2,0.4-0.1,0.6l3.6,5.5c0.1,0.2,0.4,0.3,0.6,0.1l5.5-3.6c0.1-0.1,0.2-0.2,0.2-0.3
		c0-0.1,0-0.2-0.1-0.3l-3.6-5.5C21.4,4.4,21.3,4.3,21.2,4.3z"/>
</g>
<g>
	<circle fill="#F7DA23" cx="22.3" cy="24.6" r="1.8"/>
</g>
<g>
	<path fill="#F7DA23" d="M31.9,19.1c0,1-0.8,1.8-1.8,1.8c-1,0-1.8-0.8-1.8-1.8c0-1,0.8-1.8,1.8-1.8C31,17.3,31.9,18.1,31.9,19.1z"/>
</g>
<g>
	
		<rect x="8.9" y="20.6" transform="matrix(0.5514 0.8342 -0.8342 0.5514 25.7642 2.7274)" fill="#F7DA23" width="2.8" height="9.4"/>
</g>
<g>
	<path fill="#F7DA23" d="M5.9,24.6l-1.6-2.4c2.2-1.4,4.3-2.8,6.5-4.3l1.6,2.4C10.3,21.8,8.1,23.2,5.9,24.6z"/>
</g>
<g>
	<path fill="#F7DA23" d="M5.1,19.8l-1.6-2.4c1.7-1.1,3.3-2.2,5-3.3l1.6,2.4C8.5,17.6,6.8,18.7,5.1,19.8z"/>
</g>
</svg>
