<?xml version="1.0" encoding="utf-8"?>
<!-- Generator: Adobe Illustrator 16.0.4, SVG Export Plug-In . SVG Version: 6.00 Build 0)  -->
<!DOCTYPE svg PUBLIC "-//W3C//DTD SVG 1.1//EN" "http://www.w3.org/Graphics/SVG/1.1/DTD/svg11.dtd">
<svg version="1.1" id="Слой_1" xmlns="http://www.w3.org/2000/svg" xmlns:xlink="http://www.w3.org/1999/xlink" x="0px" y="0px"
	 width="32px" height="32px" viewBox="0 0 32 32" enable-background="new 0 0 32 32" xml:space="preserve">
<path fill="#F7DA23" d="M21.9,0H10.2c-0.3,0-0.7,0-1,0C7.2,0.2,5.4,1,3.9,2.1c0,0-0.1,0-0.1,0.1C3.6,2.3,3.5,2.5,3.3,2.6
	C3.3,2.7,3.2,2.7,3.1,2.8C3,2.9,2.9,3,2.8,3.1C2.7,3.2,2.5,3.4,2.4,3.5c0,0-0.1,0.1-0.1,0.1C1.1,5,0.4,6.8,0.2,8.7
	c0,0.3-0.1,0.7-0.1,1v12.5c0,0.3,0,0.7,0.1,1c0.2,1.9,1,3.6,2.1,5c0,0,0.1,0.1,0.1,0.1c0.1,0.1,0.3,0.3,0.4,0.4
	C2.9,28.8,3,28.9,3.1,29c0.1,0.1,0.2,0.2,0.3,0.2c0.2,0.1,0.3,0.3,0.5,0.4c0,0,0.1,0,0.1,0.1c1.5,1.1,3.3,1.9,5.3,2.1
	c0.3,0,0.7,0,1,0h11.7c5.6,0,10.1-4.3,10.1-9.5v-1.1V10.7V9.5C32,4.3,27.5,0,21.9,0z M28.9,21.1v1.1c0,3.7-3.2,6.7-7,6.7l-11.7-0.1
	c-3.8,0-7-3-7-6.7V9.7c0-3.7,3.2-6.7,7-6.7c0,0,8.8-0.2,11.7,0c2.8,0.2,7,2.9,7,6.6v1.1V21.1z"/>
<path fill="#F7DA23" d="M24.8,11.2c0,0.8-0.7,1.4-1.6,1.4H9.1c-0.9,0-1.6-0.6-1.6-1.4l0,0c0-0.8,0.7-1.4,1.6-1.4h14.1
	C24.1,9.7,24.8,10.4,24.8,11.2L24.8,11.2z"/>
<path fill="#F7DA23" d="M24.6,16.5c0,0.8-0.7,1.4-1.6,1.4H8.9c-0.9,0-1.6-0.6-1.6-1.4l0,0c0-0.8,0.7-1.4,1.6-1.4h14.1
	C23.9,15,24.6,15.7,24.6,16.5L24.6,16.5z"/>
<path fill="#F7DA23" d="M24.6,21.6c0,0.8-0.7,1.4-1.6,1.4H8.9c-0.9,0-1.6-0.6-1.6-1.4l0,0c0-0.8,0.7-1.4,1.6-1.4h14.1
	C23.9,20.2,24.6,20.8,24.6,21.6L24.6,21.6z"/>
</svg>
