<?xml version="1.0" encoding="utf-8"?>
<!-- Generator: Adobe Illustrator 16.0.4, SVG Export Plug-In . SVG Version: 6.00 Build 0)  -->
<!DOCTYPE svg PUBLIC "-//W3C//DTD SVG 1.1//EN" "http://www.w3.org/Graphics/SVG/1.1/DTD/svg11.dtd">
<svg version="1.1" id="Слой_1" xmlns="http://www.w3.org/2000/svg" xmlns:xlink="http://www.w3.org/1999/xlink" x="0px" y="0px"
	 width="32px" height="32px" viewBox="0 0 32 32" enable-background="new 0 0 32 32" xml:space="preserve">
<g>
	<path fill="#383738" d="M16,0.3C7.4,0.3,0.3,7.4,0.3,16c0,8.6,7,15.7,15.7,15.7s15.7-7,15.7-15.7C31.7,7.4,24.6,0.3,16,0.3z
		 M16,27.4C9.7,27.4,4.6,22.3,4.6,16C4.6,9.7,9.7,4.6,16,4.6S27.4,9.7,27.4,16C27.4,22.3,22.3,27.4,16,27.4z"/>
	<polygon fill="#383738" points="16.4,6.7 13.6,6.7 13.6,16.3 13.6,19.1 16.4,19.1 24,19.1 24,16.3 16.4,16.3 	"/>
</g>
</svg>
