<?xml version="1.0" encoding="utf-8"?>
<!-- Generator: Adobe Illustrator 16.0.4, SVG Export Plug-In . SVG Version: 6.00 Build 0)  -->
<!DOCTYPE svg PUBLIC "-//W3C//DTD SVG 1.1//EN" "http://www.w3.org/Graphics/SVG/1.1/DTD/svg11.dtd">
<svg version="1.1" id="Слой_1" xmlns="http://www.w3.org/2000/svg" xmlns:xlink="http://www.w3.org/1999/xlink" x="0px" y="0px"
	 width="32px" height="32px" viewBox="0 0 32 32" enable-background="new 0 0 32 32" xml:space="preserve">
<g>
	<path fill="#575756" d="M13.1,22.8c6.7,0,12.1-4.2,12.1-9.3c0-5.1-5.4-9.2-12.1-9.2C6.4,4.3,1,8.4,1,13.5c0,2.3,1.1,4.3,2.9,6
		c-0.2,0.8-0.8,1.8-2.2,2.6C2,22.3,3.6,22.4,5,21.9c0.5-0.2,0.9-0.4,1.3-0.8C8.2,22.2,10.6,22.8,13.1,22.8z M13.1,7.2
		c5.1,0,9.3,2.8,9.2,6.3c0,3.5-4.1,6.4-9.2,6.4S3.9,17,3.9,13.5S8,7.2,13.1,7.2z"/>
	<path fill="#575756" d="M27.6,24c1.9-1.4,3.1-3.3,3.1-5.5c0.1-2.6-1.9-4.7-4.7-6.1c0.9,5.5-1.9,8.2-5.3,9.8
		c-2.8,1.3-5.5,1.3-8.3,1.4c1.9,2,4.1,2.7,7.6,2.7c2,0,3.8-0.4,5.4-1.1c0.2,0.1,0.4,0.2,0.6,0.3c1.4,0.5,3,0.4,3.3,0.1
		C28.5,25.1,28,24.5,27.6,24z"/>
</g>
</svg>
