<?xml version="1.0" encoding="utf-8"?>
<!-- Generator: Adobe Illustrator 16.0.4, SVG Export Plug-In . SVG Version: 6.00 Build 0)  -->
<!DOCTYPE svg PUBLIC "-//W3C//DTD SVG 1.1//EN" "http://www.w3.org/Graphics/SVG/1.1/DTD/svg11.dtd">
<svg version="1.1" id="Слой_1" xmlns="http://www.w3.org/2000/svg" xmlns:xlink="http://www.w3.org/1999/xlink" x="0px" y="0px"
	 width="32px" height="32px" viewBox="0 0 32 32" enable-background="new 0 0 32 32" xml:space="preserve">
<g>
	<path fill="#575756" d="M12.4,22.7c6.8,0,12.4-4,12.4-9c0-5-5.6-9-12.4-9S0,8.7,0,13.7c0,2.5,1.4,4.8,3.7,6.4c-0.3,0.9-1,2-2.4,2.9
		c0.4,0.3,2.2,0.4,3.9-0.2c0.7-0.2,1.2-0.6,1.7-1C8.5,22.4,10.4,22.7,12.4,22.7z"/>
	<path fill="#575756" d="M28.5,25c2.2-1.6,3.6-3.9,3.6-6.3c-0.2-3.1-2.4-5.5-5.6-7.1c1.1,6.4-2.3,9.5-6.1,11.4
		c-3.3,1.5-6.4,1.5-9.6,1.6c2.2,2.3,4.8,3.1,8.9,3.1c2.1,0,4-0.4,5.8-1.1c0.4,0.4,0.9,0.7,1.5,1c1.7,0.6,3.5,0.5,3.9,0.2
		C29.6,26.9,28.9,25.9,28.5,25z"/>
</g>
</svg>
