<?xml version="1.0" encoding="utf-8"?>
<!-- Generator: Adobe Illustrator 16.0.4, SVG Export Plug-In . SVG Version: 6.00 Build 0)  -->
<!DOCTYPE svg PUBLIC "-//W3C//DTD SVG 1.1//EN" "http://www.w3.org/Graphics/SVG/1.1/DTD/svg11.dtd">
<svg version="1.1" id="Слой_1" xmlns="http://www.w3.org/2000/svg" xmlns:xlink="http://www.w3.org/1999/xlink" x="0px" y="0px"
	 width="32px" height="32px" viewBox="0 0 32 32" enable-background="new 0 0 32 32" xml:space="preserve">
<g>
	<path fill="#393A39" d="M16.6,19.3c1.6-0.5,8.1-4.9,14.5-9.5V7.5c0-1.2-1-2.2-2.2-2.2H3.1C1.9,5.4,1,6.3,1,7.5v2.8
		C7.9,14.6,15,18.7,16.6,19.3z"/>
	<path fill="#393A39" d="M16.5,22.4C16.5,22.4,16.5,22.4,16.5,22.4c-0.5,0-1.8,0-15.5-8.5v11.9C1,27,1.9,28,3.1,28h25.7
		c1.2,0,2.2-1,2.2-2.2V13.6C24.7,18.1,18.3,22.4,16.5,22.4z"/>
</g>
</svg>
