<?xml version="1.0" encoding="utf-8"?>
<!-- Generator: Adobe Illustrator 16.0.4, SVG Export Plug-In . SVG Version: 6.00 Build 0)  -->
<!DOCTYPE svg PUBLIC "-//W3C//DTD SVG 1.1//EN" "http://www.w3.org/Graphics/SVG/1.1/DTD/svg11.dtd">
<svg version="1.1" id="Слой_1" xmlns="http://www.w3.org/2000/svg" xmlns:xlink="http://www.w3.org/1999/xlink" x="0px" y="0px"
	 width="32px" height="32px" viewBox="0 0 32 32" enable-background="new 0 0 32 32" xml:space="preserve">
<path fill="#3D3D3D" d="M30,16.4c-0.2-0.7-0.4-1.4-0.8-2.1c-0.3-0.4-1.4-1.8-1.4-1.8c-0.2-0.8-0.8-3.8-6-3.5
	c-0.8-1.4-1.7-2.1-2.3-2.4c-1.3-0.6-3-0.3-4.2,0.6c-1,0.9-2.9,3.2-1,6.4c-0.8-0.5-1.5-1.1-1.6-2.3c-0.3-2,0.8-3.3,0.8-3.4
	c0,0-4.4,0.1-6.6,2.1c-0.9,0.9-1.4,1.3-2,2.4c-1,1.7-1.1,3-1.4,4.2c0,0-0.8,1.4-3,1.7c0.5,0.1,2,0.5,3.1-0.2c0.1-0.5-0.4,3,2.3,5.9
	c0,0.7,0,1.8,0,2.6c0,0.3,0,0.8,0.7,0.9c0.7,0.2,1.9,0.1,2.6,0c0.4,0,0.7-0.4,0.7-1c0-0.9,0.2-1.9,0.6-2.6c0.6-1,1.5-1.5,2.6-1.5
	c1.5-0.1,3,1.1,3.2,2.3c0.1,0.6,0,0.6,0,1.2c0,0.8,0.1,1.5,0.6,1.6c1.2,0.2,1.9,0.1,2.7,0c0.8-0.1,0.8-1,0.8-1.3
	c0-1.1-0.1-1.9-0.1-2.8c0.1-1.2,0.4-2.2,0.3-2.1c1,1.1,2.2,2.1,3.3,2.3c1.4,0.3,3.3,0,4.3-1.1c1.3-1.3,1.8-3.3,1.6-5.5
	c0,0,0.3,0.1,0.5,0c0.4-0.1,0.9-0.2,0.9-0.2S30.1,16.7,30,16.4z M23.9,12c0.2,0,0.3,0.1,0.3,0.3c0,0.2-0.1,0.3-0.3,0.3
	c-0.2,0-0.3-0.1-0.3-0.3C23.6,12.2,23.8,12,23.9,12z M25.6,21.4c-2.3,0.6-3.5-1-3.7-1.3c0.8-0.8,1.1-1.5,1.1-1.5c0,0,2-0.2,3-0.9
	c0,0,1.4,0.7,2.1,0.6C27.9,19.1,27.5,20.9,25.6,21.4z M25,16.4c-0.1-1.2,1-1.5,1-1.5s0.9,2.2,3.8,2.7C27.2,18.3,25,16.4,25,16.4z"/>
</svg>
