<?xml version="1.0" encoding="utf-8"?>
<!-- Generator: Adobe Illustrator 16.0.4, SVG Export Plug-In . SVG Version: 6.00 Build 0)  -->
<!DOCTYPE svg PUBLIC "-//W3C//DTD SVG 1.1//EN" "http://www.w3.org/Graphics/SVG/1.1/DTD/svg11.dtd">
<svg version="1.1" id="Слой_1" xmlns="http://www.w3.org/2000/svg" xmlns:xlink="http://www.w3.org/1999/xlink" x="0px" y="0px"
	 width="32px" height="32px" viewBox="0 0 32 32" enable-background="new 0 0 32 32" xml:space="preserve">
<path fill="#393938" d="M0.8,14.8c0.6,0.5,1.4,0.5,2.1,0.3c0,0,0,0,0,0c0.4,0.4,0.8,0.7,1.3,0.8c0.2,0,0.3,0,0.5,0
	c0,1.1,0.3,2.4,0.7,3.7c1.1,3.3,3.5,6.1,5.3,7.8c0.1,0.1,2.5,0.3,3.8,0c0-0.7-0.3-1.4-0.2-2.1c0.9,0.3,4.1,0.6,5,0.1
	c0.4-0.2,1.1,1.8,1.1,1.8c0.3,0.3,2.3,0.4,3.9,0c0-0.3,0-2.9,0-2.9c1.9-0.6,2.7-2.7,2.9-2.8c0.2-0.1,1.3,0.1,1.7-0.2
	c2.8-2.2,2.4-4.7,1.7-5.2c-0.3-0.2-0.9,0-1.5-0.4c-0.8-0.5-0.2-1.5-1.2-2.9c-0.1-0.2-0.9-1.5-0.9-1.5c0.2,0,2.5-1.8,2.4-2.9
	c-2.2-1.7-5.4-1.3-6.6-1c0,0-4.1-1.7-8.5-1c-1.9,0.3-4,0.7-5.7,1.8C7.2,9.5,6.1,11,5.3,12.8c-0.3,0.7-0.5,1.5-0.5,2.5
	c-0.1,0-0.2,0-0.3,0c-0.3-0.1-0.5-0.2-0.7-0.4c0.2-0.1,0.3-0.2,0.5-0.4c0.3-0.3,0.4-0.9,0.2-1.4c-0.2-0.4-0.5-0.7-0.8-0.7
	c-0.4,0-0.7,0.1-0.9,0.4c-0.3,0.4-0.4,1-0.3,1.4c0,0.1,0.1,0.3,0.2,0.4c-0.4,0.1-0.9,0-1.2-0.2c0,0-0.3-0.2-0.5,0
	C0.6,14.5,0.8,14.8,0.8,14.8z M24.9,14.5c0-0.3,0.2-0.5,0.5-0.5c0.3,0,0.5,0.2,0.5,0.5s-0.2,0.5-0.5,0.5
	C25.2,15.1,24.9,14.8,24.9,14.5z M11.1,9.2c0,0,1.7-1.1,5.2-1.1c3.4,0,5.2,1.1,5.2,1.1l-0.4,0.9c0,0-2.8-1-5.1-1c-2.3,0-4.6,1-4.6,1
	L11.1,9.2z M2.8,13.7c0-0.2,0.1-0.8,0.6-0.7C4,13,3.8,13.8,3.8,13.9c-0.1,0.3-0.3,0.3-0.6,0.4C3.1,14.2,2.8,13.9,2.8,13.7z"/>
</svg>
