<?xml version="1.0" encoding="utf-8"?>
<!-- Generator: Adobe Illustrator 16.0.4, SVG Export Plug-In . SVG Version: 6.00 Build 0)  -->
<!DOCTYPE svg PUBLIC "-//W3C//DTD SVG 1.1//EN" "http://www.w3.org/Graphics/SVG/1.1/DTD/svg11.dtd">
<svg version="1.1" id="Слой_1" xmlns="http://www.w3.org/2000/svg" xmlns:xlink="http://www.w3.org/1999/xlink" x="0px" y="0px"
	 width="32px" height="32px" viewBox="0 0 32 32" enable-background="new 0 0 32 32" xml:space="preserve">
<g>
	<path fill="#616161" d="M1.6,24l0.5,1.2c0.1,0.1,0.7,1.6,3.1,3.9c1.8,1.7,4.7,2.4,5,2.5l1.4,0.3L14.9,17L1.6,24z M9.5,28.4
		c-0.8-0.3-1.7-0.8-2.3-1.4c-0.8-0.8-1.3-1.4-1.7-1.9l5.3-2.8L9.5,28.4z"/>
	<path fill="#616161" d="M16,0.2C7.3,0.2,0.2,7.3,0.2,16c0,2.5,0.6,4.9,1.6,7v-0.1L16,15.5l-3.4,15.9c1.1,0.2,2.3,0.4,3.4,0.4
		c8.7,0,15.8-7.1,15.8-15.8S24.7,0.2,16,0.2z"/>
</g>
</svg>
