<?xml version="1.0" encoding="utf-8"?>
<!-- Generator: Adobe Illustrator 16.0.4, SVG Export Plug-In . SVG Version: 6.00 Build 0)  -->
<!DOCTYPE svg PUBLIC "-//W3C//DTD SVG 1.1//EN" "http://www.w3.org/Graphics/SVG/1.1/DTD/svg11.dtd">
<svg version="1.1" id="Слой_1" xmlns="http://www.w3.org/2000/svg" xmlns:xlink="http://www.w3.org/1999/xlink" x="0px" y="0px"
	 width="32px" height="32px" viewBox="0 0 32 32" enable-background="new 0 0 32 32" xml:space="preserve">
<g>
	<path fill="#575756" d="M29.6,23c0,0.9-0.7,1.5-1.5,1.5s-1.5-0.7-1.5-1.5s0.7-1.5,1.5-1.5S29.6,22.1,29.6,23z"/>
</g>
<g>
	<ellipse fill="#575756" cx="28.1" cy="2.8" rx="1.6" ry="1.6"/>
</g>
<g>
	<path fill="#575756" d="M15.2,13.7c0,2.2-1.9,4.1-4.2,4.1H4.3c-2.3,0-4.2-1.8-4.2-4.1v-1.2c0-2.2,1.9-4.1,4.2-4.1H12
		c2.3,0,3.1,1.8,3.1,4.1V13.7z"/>
</g>
<g>
	<path fill="#575756" d="M11.6,11.3c-0.2,0-0.4,0-0.6,0l0.3-2.8c1,0.1,3.3-0.4,4.1-0.5c1.5-0.3,2.1-0.5,3.5-1.1l0.1,0
		c3-1.2,5.1-2.6,7.7-4.8l1.8,2.2c-2.8,2.4-5.2,4-8.6,5.3l-0.1,0c-1.5,0.6-2.3,0.9-3.9,1.2C14.5,11,12.9,11.3,11.6,11.3z"/>
</g>
<g>
	<path fill="#575756" d="M26.9,24c-2.7-2.2-4.7-3.7-7.7-4.8L19,19.1c-1.4-0.5-2-0.8-3.5-1.1l-0.1,0c-2.7-0.6-3.4-0.5-3.6-0.4l-1-2.6
		c1.1-0.4,2.9-0.2,5.3,0.3l0.1,0c1.7,0.4,2.4,0.7,3.9,1.2l0.1,0.1c3.4,1.3,5.7,2.9,8.6,5.3L26.9,24z"/>
</g>
<g>
	<path fill="#575756" d="M26.7,23.1c0-4.1,0-4.3,0-6.2c0-1.8,0-4.9,0-13.9l2.8,0c0,9,0,12.2,0,14c0,1.9,0,2.1,0,6.2L26.7,23.1z"/>
</g>
<g>
	<rect x="12.9" y="9.1" fill="#575756" width="2.3" height="7"/>
</g>
<g>
	<ellipse fill="#575756" cx="29.7" cy="13.1" rx="2" ry="2.2"/>
</g>
<g>
	<path fill="#575756" d="M5.6,16.9c0,0.1-0.2,0.3-0.2,0.4c-0.1,0.2-0.2,0.4-0.2,0.6c-0.2,0.4-0.3,0.8-0.4,1.3
		c-0.3,1.2-0.4,2.5-0.2,3.8c0.2,2,0.9,4.7,3.1,5.2c0.9,0.2,1.9,0.1,2.9,0.1c0.7,0,1.6,0,2-0.7c0.2-0.4-0.4-1.8-1.1-2.8
		c0,0-1-0.1-1.3-0.8c-0.3-0.9,0.5-1.6,0.5-1.6c0-0.1-0.9-0.6-0.7-1.6c0.2-1,1.3-1.1,1.3-1.1c0-0.1,1.8-2.9,2-3.1
		c-0.6-0.2-1.3-0.4-1.9-0.5c-0.5-0.1-0.9-0.1-1.4-0.1c-0.5,0-1.1-0.1-1.7,0c-0.5,0.1-1.1,0.3-1.6,0.5C6.4,16.7,5.9,16.7,5.6,16.9"/>
</g>
<g>
	<path fill="none" stroke="#FFFFFF" stroke-width="1.4173" stroke-miterlimit="10" d="M23.1,9.4"/>
</g>
</svg>
