<?xml version="1.0" encoding="utf-8"?>
<!-- Generator: Adobe Illustrator 16.0.4, SVG Export Plug-In . SVG Version: 6.00 Build 0)  -->
<!DOCTYPE svg PUBLIC "-//W3C//DTD SVG 1.1//EN" "http://www.w3.org/Graphics/SVG/1.1/DTD/svg11.dtd">
<svg version="1.1" id="Слой_1" xmlns="http://www.w3.org/2000/svg" xmlns:xlink="http://www.w3.org/1999/xlink" x="0px" y="0px"
	 width="32px" height="32px" viewBox="0 0 32 32" enable-background="new 0 0 32 32" xml:space="preserve">
<path fill="#B6B6B5" d="M31,15.8c0-0.1-0.9-2.5-3.1-4.9C25.8,8.7,22.1,6.1,16,6.1C4.7,6.1,1,16.1,1,16.3l-0.2,0.6l0.3,0.5
	c0.2,0.4,4.8,8.7,14.8,8.7l0.1,0c6.2,0,10-2.6,12-4.7c2.2-2.3,3-4.7,3-4.8l0.1-0.4L31,15.8z M12.4,18.2c0,0-1.9-1.3-2.4-3.4
	c-0.4-2.1,0.4-3,0.4-3l1.9,0.4c0,0-1,1-1,2.3C11.4,16.8,12.4,18.2,12.4,18.2z M16,23.3h-0.1c-7,0-10.9-5-12-6.7
	c0.6-1.3,2.3-4.3,5.7-6.1c-0.7,1.1-1.1,2.4-1.1,3.8c0,3.9,3.3,7.2,7.4,7.2c4.1,0,7.4-3.2,7.4-7.2c0-1.6-0.5-3-1.4-4.2
	c4.1,1.7,5.9,5,6.4,6.2C27.5,17.8,24.5,23.2,16,23.3z"/>
</svg>
