<?xml version="1.0" encoding="utf-8"?>
<!-- Generator: Adobe Illustrator 16.0.4, SVG Export Plug-In . SVG Version: 6.00 Build 0)  -->
<!DOCTYPE svg PUBLIC "-//W3C//DTD SVG 1.1//EN" "http://www.w3.org/Graphics/SVG/1.1/DTD/svg11.dtd">
<svg version="1.1" id="Слой_1" xmlns="http://www.w3.org/2000/svg" xmlns:xlink="http://www.w3.org/1999/xlink" x="0px" y="0px"
	 width="32px" height="32px" viewBox="0 0 32 32" enable-background="new 0 0 32 32" xml:space="preserve">
<path fill="#B6B6B5" d="M30.1,27.7L24,21.5c1.5-2.1,2.4-4.7,2.4-7.5c0-7.1-5.8-12.8-12.8-12.8C6.5,1.2,0.8,7,0.8,14
	c0,7.1,5.8,12.8,12.8,12.8c2.9,0,5.6-1,7.8-2.7l6,6.1c0.7,0.7,1.9,0.7,2.7,0C30.8,29.6,30.8,28.4,30.1,27.7z M3.6,14
	c0-5.5,4.5-10,10-10c5.5,0,10,4.5,10,10c0,5.5-4.5,10-10,10C8.1,24,3.6,19.6,3.6,14z"/>
</svg>
