<?xml version="1.0" encoding="utf-8"?>
<!-- Generator: Adobe Illustrator 16.0.4, SVG Export Plug-In . SVG Version: 6.00 Build 0)  -->
<!DOCTYPE svg PUBLIC "-//W3C//DTD SVG 1.1//EN" "http://www.w3.org/Graphics/SVG/1.1/DTD/svg11.dtd">
<svg version="1.1" id="Слой_1" xmlns="http://www.w3.org/2000/svg" xmlns:xlink="http://www.w3.org/1999/xlink" x="0px" y="0px"
	 width="32px" height="32px" viewBox="0 0 32 32" enable-background="new 0 0 32 32" xml:space="preserve">
<g>
	<path fill="#F8DB22" d="M19.3,15c-0.6,0.6-1.7,0.6-2.2,0l0,0c-0.4-0.4-0.6-0.9-0.5-1.5c0.1-0.3,0.2-0.6,0.5-0.8L27.7,2
		c0.6-0.6,1.7-0.6,2.2,0l0,0c0.6,0.6,0.6,1.7,0,2.2L19.3,15z"/>
</g>
<g>
	<polygon fill="#F7DA23" points="16,16 16.8,13.4 18.7,15.2 	"/>
</g>
<g>
	<path fill="#F7DA23" d="M20.7,30.8H10.6c-4.8,0-8.8-3.9-8.8-8.8V10.7c0-4.8,3.9-8.8,8.8-8.8h10.1v2.7H10.6c-3.3,0-6.1,2.8-6.1,6.1
		v11.4c0,3.3,2.8,6.1,6.1,6.1h10.1c3.3,0,6.1-2.8,6.1-6.1V11.6h2.7v10.5C29.5,26.9,25.6,30.8,20.7,30.8z"/>
</g>
<g>
	<polygon fill="#F7DA23" points="20.7,4.6 23.5,2 20.7,2 	"/>
</g>
<g>
	<polygon fill="#F7DA23" points="29.5,9.1 26.8,11.6 29.5,11.6 	"/>
</g>
</svg>
