<?xml version="1.0" encoding="utf-8"?>
<!-- Generator: Adobe Illustrator 16.0.4, SVG Export Plug-In . SVG Version: 6.00 Build 0)  -->
<!DOCTYPE svg PUBLIC "-//W3C//DTD SVG 1.1//EN" "http://www.w3.org/Graphics/SVG/1.1/DTD/svg11.dtd">
<svg version="1.1" id="Слой_1" xmlns="http://www.w3.org/2000/svg" xmlns:xlink="http://www.w3.org/1999/xlink" x="0px" y="0px"
	 width="32px" height="32px" viewBox="0 0 32 32" enable-background="new 0 0 32 32" xml:space="preserve">
<g>
	<path fill="#F7DA23" d="M28.4,4.7H3.5C1.5,4.7,0,6.4,0,8.5v1.9v5.1v8.3c0,2.1,1.6,3.8,3.5,3.8h24.9c1.9,0,3.4-1.7,3.5-3.8V8.5
		C31.9,6.4,30.3,4.7,28.4,4.7z M29,23.8c0,0.6-0.3,1-0.6,1H3.5c-0.3,0-0.6-0.4-0.6-1v-8.3H29V23.8z M29,10.4H2.9V8.5
		c0-0.6,0.3-1,0.6-1h24.9c0.3,0,0.6,0.4,0.6,1V10.4z"/>
	<rect x="4.1" y="19.3" fill="#F7DA23" width="6.8" height="3.2"/>
	<rect x="13.2" y="19.3" fill="#F7DA23" width="6.8" height="3.2"/>
</g>
</svg>
