<?xml version="1.0" encoding="utf-8"?>
<!-- Generator: Adobe Illustrator 16.0.4, SVG Export Plug-In . SVG Version: 6.00 Build 0)  -->
<!DOCTYPE svg PUBLIC "-//W3C//DTD SVG 1.1//EN" "http://www.w3.org/Graphics/SVG/1.1/DTD/svg11.dtd">
<svg version="1.1" id="Слой_1" xmlns="http://www.w3.org/2000/svg" xmlns:xlink="http://www.w3.org/1999/xlink" x="0px" y="0px"
	 width="32px" height="32px" viewBox="0 0 32 32" enable-background="new 0 0 32 32" xml:space="preserve">
<path fill="#393A39" d="M1.4,8.9c0.4,0,4.1-0.1,4.7,0c0.5,0.1,0.4,0,1.6,2.5c1.2,2.6,2.6,5.4,3.9,5.3c0.4,0,1-0.8,1-3.7
	c0-2.6-0.4-3.5-2-3.7c0-1.4,4.5-1.4,5.9-1.2c0.5,0.1,1.4,0.1,1.8,0.8c0.5,0.8,0.1,5,0.1,5.7c0,1.6,0.4,2.1,0.9,2
	c0.7-0.2,1.7-1.5,2.3-2.5c0.6-1.1,1.6-2.8,2.2-4.4c0.2-0.5,0.4-0.8,1-0.9c0.9-0.1,4.6,0,5.5-0.1c0.3,0,1.4,0.1,0.7,1.7
	c-0.2,0.4-1.7,3-3,4.5c-0.5,0.5-1.8,2.3-1.8,2.7c-0.1,1.3,2.2,2.5,3.6,4.3c1,1.3,1.8,2.5,1.2,3.1c-0.4,0.4-1.7,0.4-3,0.4
	c-1.1,0-2.3,0.1-2.8,0c-1.9-0.5-2.1-1.3-3.1-2.3c-0.7-0.6-1.7-2.2-2.5-1.8c-0.5,0.2-0.8,0.8-1,1.5c-0.3,1,0.3,2-0.9,2.4
	c-0.3,0.1-0.8,0.1-1.4,0.1c-0.6,0-1.3,0-1.8-0.1c-1.1-0.1-2.7-0.5-5.3-2.3c-1.5-1-2.7-2.9-4.2-4.9c-1.3-1.7-4.5-8.2-4.5-8.8
	C0.4,9.6,0.3,8.9,1.4,8.9z"/>
</svg>
