<?xml version="1.0" encoding="utf-8"?>
<!-- Generator: Adobe Illustrator 16.0.4, SVG Export Plug-In . SVG Version: 6.00 Build 0)  -->
<!DOCTYPE svg PUBLIC "-//W3C//DTD SVG 1.1//EN" "http://www.w3.org/Graphics/SVG/1.1/DTD/svg11.dtd">
<svg version="1.1" id="Слой_1" xmlns="http://www.w3.org/2000/svg" xmlns:xlink="http://www.w3.org/1999/xlink" x="0px" y="0px"
	 width="32px" height="32px" viewBox="0 0 32 32" enable-background="new 0 0 32 32" xml:space="preserve">
<g>
	<path fill="#393938" d="M18.5,6.2c0.6-0.6,1-1.5,1-2.4c0-1.9-1.5-3.4-3.4-3.4s-3.4,1.5-3.4,3.4c0,0.9,0.4,1.8,1,2.4
		C7.8,7.4,3.4,12.5,3.4,18.6c0,6.9,5.7,12.6,12.6,12.6s12.6-5.6,12.6-12.6C28.6,12.5,24.2,7.4,18.5,6.2z M16,2.5
		c0.7,0,1.3,0.6,1.3,1.3S16.7,5.1,16,5.1c-0.7,0-1.3-0.6-1.3-1.3S15.3,2.5,16,2.5z M16,28.4c-5.4,0-9.8-4.4-9.8-9.8
		c0-5.4,4.4-9.8,9.8-9.8c5.4,0,9.8,4.4,9.8,9.8C25.8,24,21.4,28.4,16,28.4z"/>
	<polygon fill="#393938" points="17.8,16.8 16.1,10.1 14.2,16.8 7.5,18.5 14.4,20.5 16.1,27.1 17.9,20.4 24.5,18.5 	"/>
	<polygon fill="#393938" points="13.6,14 10.9,12.4 12.5,15.1 	"/>
	<polygon fill="#393938" points="21.3,12.4 18.5,13.9 19.5,15.1 	"/>
	<polygon fill="#393938" points="10.8,24.4 13.6,22.7 12.5,21.7 	"/>
	<polygon fill="#393938" points="18.5,22.8 21.3,24.4 19.5,21.7 	"/>
</g>
</svg>
