<?xml version="1.0" encoding="utf-8"?>
<!-- Generator: Adobe Illustrator 16.0.4, SVG Export Plug-In . SVG Version: 6.00 Build 0)  -->
<!DOCTYPE svg PUBLIC "-//W3C//DTD SVG 1.1//EN" "http://www.w3.org/Graphics/SVG/1.1/DTD/svg11.dtd">
<svg version="1.1" id="Слой_1" xmlns="http://www.w3.org/2000/svg" xmlns:xlink="http://www.w3.org/1999/xlink" x="0px" y="0px"
	 width="32px" height="32px" viewBox="0 0 32 32" enable-background="new 0 0 32 32" xml:space="preserve">
<path fill="#616161" d="M0.4,8c0.5-0.5,0.7-0.8,1.4-0.8c0.3,0,1,0.2,1.3,0.9c0.4,1,0.4,1.5,0.4,2.2c-0.2,2-1.5,5.2-0.4,7.8
	c0.5,1.3,1.2,2.2,2.6,3.1c2.2,1.5,4.8,1.9,4.8,1.9s0,0.7,0.5,1.4c0.4,0.5,1,0.8,1,0.8c0,0.4-0.3,1.6-0.5,1.6c-1,0-2.3-0.6-2.8,0.6
	c0.1,0,0.3,0,0.6,0c1.2,0,3.4,0,3.4,0s0-0.2-0.1-0.3c-0.2-0.2-0.2-0.5-0.2-0.7c0-0.2,0.5-0.9,0.5-0.9c1.3-0.5,1.6-1.4,1.8-1.7
	c1.6,0.4,2.3-0.1,2.8-0.2c0.8-0.2,1.9-0.9,1.8-0.9c-0.3,0.1,0.9,0.1,2,0c1.5-0.1,2.7-0.5,2.7-0.5c1.3,0.5,3.6,1.2,4.9,1.3
	c0.7,0.1,3.2,0.1,2.8-1.2c-0.1-0.5-1.7-1.5-2.4-2c-1-0.6-4.2-3.3-11.4-6.1c0,0-1.6-1.6-2.7-2.4c-1.2-0.9-4-2.2-4-2.2
	C10.5,9,9.3,6.9,8.7,5.9c-1-1.5-1.8-3-3.8-3.1C4,2.8,2.7,2.8,1.8,4C1.2,4.8,1,6.2,1,6.2S0.5,6.7,0.4,6.9C0.2,7.7,0.4,8,0.4,8z"/>
</svg>
