<?xml version="1.0" encoding="utf-8"?>
<!-- Generator: Adobe Illustrator 16.0.4, SVG Export Plug-In . SVG Version: 6.00 Build 0)  -->
<!DOCTYPE svg PUBLIC "-//W3C//DTD SVG 1.1//EN" "http://www.w3.org/Graphics/SVG/1.1/DTD/svg11.dtd">
<svg version="1.1" id="Слой_1" xmlns="http://www.w3.org/2000/svg" xmlns:xlink="http://www.w3.org/1999/xlink" x="0px" y="0px"
	 width="32px" height="32px" viewBox="0 0 32 32" enable-background="new 0 0 32 32" xml:space="preserve">
<path fill="#424242" d="M3,4.5c0,0,2.5,2.8,5.5,4.4c4.4,2.3,7.6,2.1,7.6,2.1S14.8,6,19.6,3.8c4.2-2,7.2,1.5,7.2,1.5s1.6-0.4,2.2-0.6
	c0.4-0.2,1.7-0.9,1.7-0.9s-0.5,1.4-0.8,1.8c-0.3,0.4-1.7,1.5-1.7,1.5S29,7.1,29.3,7c0.6-0.1,2.3-0.7,2.3-0.7s-1,1.3-1.4,1.7
	c-0.3,0.3-1.7,1.2-1.7,1.2s0.5,9-6,14.4C11.2,33,0.9,25.3,0.9,25.3s1.9,0.4,5-0.3c1.9-0.4,4.3-2.2,4.3-2.2s-2.5-0.3-4-1.6
	c-1.4-1.3-1.6-2.7-1.6-2.7s0.9,0.1,1.2,0.1c0.4,0,1.5-0.2,1.5-0.2s-2.4-0.6-3.7-2.3c-1.5-2-1.5-4-1.5-4s1.2,0.5,1.6,0.6
	c0.4,0.1,1.3,0.1,1.3,0.1s-1.9-1.1-2.7-3.9C1.8,6.7,3,4.5,3,4.5z"/>
</svg>
