<?xml version="1.0" encoding="utf-8"?>
<!-- Generator: Adobe Illustrator 16.0.4, SVG Export Plug-In . SVG Version: 6.00 Build 0)  -->
<!DOCTYPE svg PUBLIC "-//W3C//DTD SVG 1.1//EN" "http://www.w3.org/Graphics/SVG/1.1/DTD/svg11.dtd">
<svg version="1.1" id="Слой_1" xmlns="http://www.w3.org/2000/svg" xmlns:xlink="http://www.w3.org/1999/xlink" x="0px" y="0px"
	 width="32px" height="32px" viewBox="0 0 32 32" enable-background="new 0 0 32 32" xml:space="preserve">
<g>
	<path fill="#393938" d="M29.4,11.9c-2.1-6.8-7.5-11.5-13-11.5c-0.4,0-0.7,0-1.1,0.1c-1.7,0.1-4.6,0.9-4.8,1
		c-6.2,2-9.3,10.3-6.6,18.7c3.1,9.9,10.7,11,13.8,11c1.8,0,5.1-0.9,5.9-1.4l0,0C29.2,27.3,31.8,19.6,29.4,11.9z M27.3,12.6
		c2.2,6.9-0.2,13.8-5.2,15.4c-0.7,0.2-1.4,0.3-2.1,0.3c-4.5,0-9.1-4.2-10.9-9.9C6.9,11.4,9.2,4.5,14.2,3c0.7-0.2,1.4-0.3,2.1-0.3
		C20.9,2.6,25.5,6.8,27.3,12.6z"/>
	<path fill="#393938" d="M19.3,19C17.8,15.9,14,8,14,8l-1.5,1.1c0,0,0,2.3,0,2.8c-0.3,2.4-1,3.3-1.2,3.4c0,0,0.7,2,0.7,2
		c1.3-0.3,2-2.1,2.1-2.6c0.2-0.7,0.1-1.1,0.1-1.3c0.5,1,2.3,4.8,3.4,6.9c-0.6,0.5-1.3,1-1.9,1.5l0.8,2c1.7-1.4,3.8-2.9,5.4-4.1
		l-0.9-2C20.5,18.1,19.9,18.6,19.3,19z"/>
	<path fill="#393938" d="M20.4,16.3c0,0,0.6-0.4,1.3-0.8c0.2,0.2,0.5,0.4,0.6,0.7c0.3,0.4,0.6,0.9,0.5,1.6l0.1,1.2
		c0,0,0.5-1.4,1.4-1.7c0.1,0,1.1-0.2,1.8-0.4c0.5-0.1,0.8-0.7,0.9-0.7l-0.7-1.6c-0.2,0.7-1,0.6-1.3,0.6c-0.4,0-0.7,0.1-0.9,0.3
		c-0.1-0.1-0.2-0.3-0.3-0.5c-0.2-0.2-0.4-0.5-0.6-0.7c0.5-0.3,0.8-0.5,0.9-0.6l-0.7-1.2c-0.1,0.1-0.6,0.4-1.2,0.7
		c0,0-0.1-0.1-0.1-0.1c-0.4-0.6-0.3-1.5,0-1.9c0.1-0.1,0.6-0.6,1.2-0.3L24,9.5c-1.1-0.5-2.5-0.2-3.2,0.7c-0.9,1.1-1,2.8-0.2,4.1
		c0,0.1,0.1,0.1,0.1,0.1c-0.6,0.4-1,0.7-1,0.7C19.7,15,20.4,16.3,20.4,16.3z"/>
</g>
</svg>
