<?xml version="1.0" encoding="utf-8"?>
<!-- Generator: Adobe Illustrator 16.0.4, SVG Export Plug-In . SVG Version: 6.00 Build 0)  -->
<!DOCTYPE svg PUBLIC "-//W3C//DTD SVG 1.1//EN" "http://www.w3.org/Graphics/SVG/1.1/DTD/svg11.dtd">
<svg version="1.1" id="Слой_1" xmlns="http://www.w3.org/2000/svg" xmlns:xlink="http://www.w3.org/1999/xlink" x="0px" y="0px"
	 width="32px" height="32px" viewBox="0 0 32 32" enable-background="new 0 0 32 32" xml:space="preserve">
<g id="XMLID_1_">
	<g>
		<path fill="#F7DA25" d="M22.4,19.9l4.7-2.7c0.2-0.1,0.4-0.2,0.6-0.3l-1.9-1.2l-6.7,3.8l0.6,0.3c0.5,0.3,1.1,0.6,1.5,0.8
			C21.4,20.4,22,20.1,22.4,19.9z M19,7.9l7,3.2l1.8-1.4c-0.2-0.1-0.4-0.2-0.5-0.2l-5-2.3c-0.5-0.2-1-0.5-1.4-0.6
			c-0.3,0.2-0.9,0.6-1.4,0.9L19,7.9z M24.6,22.6c0-0.2,0-0.5,0-0.8l-0.8,0.5c-2,1.2-2.4,1.2-2.7,1.2h0c-0.3,0-0.8,0-2.9-1.2L17.8,22
			v4.7C20,25.4,23.3,23.4,24.6,22.6z M21.7,12.2l-4-1.8v5.9c1.7-0.9,4.2-2.2,5.9-3.1c-0.5-0.2-1.1-0.5-1.8-0.9
			C21.8,12.2,21.7,12.2,21.7,12.2z M6.9,11l7-3.2l-0.5-0.4c-0.5-0.4-1.1-0.7-1.4-0.9c-0.3,0.1-0.9,0.4-1.4,0.6l-5,2.3
			C5.5,9.5,5.3,9.6,5.1,9.7L6.9,11z M12.9,19.1l-6.9-3.5l-1.9,1.3c0.2,0.1,0.4,0.2,0.5,0.3l4.9,2.5c0.5,0.3,1,0.5,1.3,0.7
			c0.4-0.2,0.9-0.5,1.4-0.9L12.9,19.1z M8.9,13.2c1.6,0.9,4.5,2.5,6,3.2v-6L8.9,13.2z M12.7,29.3c-5.9-3.3-6.6-3.7-6.9-4
			c-0.4-0.3-0.6-0.6-0.7-4.8l-1.6-0.8c-2.5-1.2-2.9-1.7-3-2.5c0-0.7,0.2-1.3,1.8-2.4L4.8,13l-1.7-1.3c-1.5-1.2-1.8-1.9-1.7-2.5
			C1.5,8.4,2,7.9,4.6,6.8l4.9-2.2c1.9-0.9,2.4-0.9,2.7-0.9h0.1c0.3,0,0.8,0.1,2.8,1.5l1.4,1l1.4-1c2-1.5,2.5-1.5,2.8-1.5h0.2
			c0.2,0,0.7,0,2.7,0.9l4.9,2.2c2.5,1,3,1.5,3.1,2.3c0.1,0.7-0.2,1.3-1.7,2.5l-2.3,1.7l1.9,1.2c1.6,1,2,1.7,1.9,2.4
			c0,0.8-0.5,1.3-2.9,2.6l-1,0.6c0,1.4-0.1,2.7-0.1,3.4c-0.1,0.8-0.1,0.8-5.4,4c-5.1,3-5.6,3.1-6,3.1c-0.1,0-0.1,0-0.2,0
			c-0.5,0-1-0.1-1.4-0.4C14.1,30.1,13.5,29.8,12.7,29.3z"/>
	</g>
	<g>
	</g>
</g>
</svg>
