<?xml version="1.0" encoding="utf-8"?>
<!-- Generator: Adobe Illustrator 16.0.4, SVG Export Plug-In . SVG Version: 6.00 Build 0)  -->
<!DOCTYPE svg PUBLIC "-//W3C//DTD SVG 1.1//EN" "http://www.w3.org/Graphics/SVG/1.1/DTD/svg11.dtd">
<svg version="1.1" id="Слой_1" xmlns="http://www.w3.org/2000/svg" xmlns:xlink="http://www.w3.org/1999/xlink" x="0px" y="0px"
	 width="32px" height="32px" viewBox="0 0 32 32" enable-background="new 0 0 32 32" xml:space="preserve">
<path fill="#616161" d="M27.7,10.5L27.2,10l-0.6,0.8v-0.5l-2.2,1.5c0-0.2,0-0.4,0-0.6c0-0.3-0.9-0.8-0.9-0.8s0.9,0,1.2-0.4
	c0.3-0.5-0.1-0.8-0.1-0.8S25,9.3,25.1,9c0.3-0.7,0.2-1.4,0.2-1.4s-0.9-0.2-1.5,0.1c-0.1,0-0.2,0.4-0.2,0.4S23.4,7.8,23,8
	c-0.5,0.2-0.6,1.1-0.6,1.1s-0.3-0.8-0.7-1C21.6,8,21.2,8,21.2,8s0.3-0.7,0.5-0.9c0.2-0.3,1-1.1,1-1.1l-1.1-0.3c0,0,0.3-0.2,0.4-0.3
	c0.2-0.1,0.7-0.3,0.7-0.3s-0.4-0.6-0.9-1s-1.1-0.6-1.1-0.6s0,0.5,0,0.7c0,0.1-0.2,0.5-0.2,0.5l-0.6-1c0,0-0.5,0.9-0.7,1.1
	C19,5,18.3,5.6,18.3,5.6s-0.1-0.2-0.2-0.3c-0.2-0.1-0.8-0.1-1-0.2C17,5,16.7,4.8,16.7,4.8s0.7,0.1,1-0.5c0.2-0.4-0.3-0.9-0.3-0.9
	s0.3-0.1,0.3-0.2C17.8,2.9,17.3,2,17.3,2s-1,0.2-1.2,0.4c0,0.1,0,0.4,0,0.4s-0.4-0.1-0.6,0.1c-0.5,0.5-0.1,1.2-0.1,1.2
	S15.1,4,14.9,3.8c-0.2-0.2-0.3-0.5-0.5-0.5c-0.4-0.1-0.7,0.1-0.7,0.1l1-2.4l-0.4,0.1l0.6-0.7l-0.6-0.3l-0.5,1.1c0,0-0.6,0.1-0.8,0.6
	C12.7,2.6,13.2,3,13.2,3s-0.5,0.8-0.6,1.1c0,0.1,0.1,0.3,0.1,0.3s-0.4,0.1-0.6,0.4c-0.3,0.5,0.1,0.9,0.1,0.9l-0.6,0.1l0.5,0.5
	C12,6.2,12,6.1,11.9,6.1c-0.2-0.2-0.3-0.2-0.3-0.2C11.2,5.8,10,6,9.1,6.9S8.9,9.1,8.9,9.1c-2,2.5-1.2,4.1-1.3,4.3
	c-0.5,0.6-0.9,0.9-1.3,1.3C6,15,5.3,15.5,5.6,16c0.2,0.3,0.6,0.5,0.9,0.7s0.1,0.5,0,0.8c0,0.1-0.2,0.4-0.1,0.5
	c0,0.2,0.2,0.4,0.2,0.4s-0.3,0.3-0.2,0.5C6.5,19,6.3,19,6.7,19.2c0.2,0.1,0,0.8,0,1C6.6,21,7,21.3,7.9,21.4c0.8,0,1.1,0.1,1.5,0.1
	c0.3,0.1,0.9,0.5,1.1,0.8c0.6,0.8,1.1,1.9,1.3,2.9c0.2,0.9,0,1.6-0.3,2.5c-0.4,1.1-1.9,3-2.1,4.2c0,0,3.1-1.4,6.2-2.4
	c3-0.9,6-1.4,5.9-1.4c0,0-1.9-3-2.3-4c-0.4-0.9-0.7-3.5-0.6-3.9c0,0,1.6-0.4,2.2-0.9c1.3-1.2,1.7-3,0.8-4.3l0.6-0.6L22,14.3h0.5
	v-0.4c0,0,0.5,0.2,0.9,0c0.4-0.2,0.3-0.7,0.3-0.7l0.5-0.1l0.1-0.3l0.7-0.4l0.3-0.1c0,0,0.5,0.3,1.2-0.3c0.4-0.3,0.3-0.7,0.3-0.7
	L27.7,10.5z"/>
</svg>
