<?xml version="1.0" encoding="utf-8"?>
<!-- Generator: Adobe Illustrator 16.0.4, SVG Export Plug-In . SVG Version: 6.00 Build 0)  -->
<!DOCTYPE svg PUBLIC "-//W3C//DTD SVG 1.1//EN" "http://www.w3.org/Graphics/SVG/1.1/DTD/svg11.dtd">
<svg version="1.1" id="Слой_1" xmlns="http://www.w3.org/2000/svg" xmlns:xlink="http://www.w3.org/1999/xlink" x="0px" y="0px"
	 width="32px" height="32px" viewBox="0 0 32 32" enable-background="new 0 0 32 32" xml:space="preserve">
<g>
	<path fill="#616161" d="M25.7,18.9c-2-1.3-3.9-2.7-6.4-2.1c-2.3,0.6-6.6,1.6-9,1.9c-1,0.1-1.2-0.2-4.4-1.5
		c-0.6-0.3-2.5-1.5-3.8-1.9c-1.2-0.3-1.7,0.2-1.5,1c0.1,0.5,6.7,8.4,8.2,8.9c1.9,0.8,4.8-0.1,6.6-0.5c2.2-0.5,5.6-1.4,5.6-1.4
		c0.7,0.9,4.5,5.6,5,6.6c1-0.6,5.5-7.5,5.5-7.5S28.1,20.3,25.7,18.9z"/>
	<path fill="#616161" d="M6.9,16.3c2.7,0.1,7.5,0,10.3,0c3.3,0,5.1-3.2,4.2-5.6c-0.7-1.8-1.1-2.8-2.4-5.1c-0.9-1.4-2.6-2.1-3.5-2.1
		c-0.4,0-0.9,0-1.5,0c0.4-0.2,0.6-0.6,0.6-1c0-0.7-0.5-1.2-1.2-1.2c-0.5,0-0.8,0.3-1,0.7c-0.2-0.4-0.6-0.7-1.1-0.7
		c-0.7,0-1.2,0.5-1.2,1.2c0,0.5,0.3,0.9,0.7,1.1c-0.7,0-1.3,0-1.8,0c-0.9,0-2.3,0.5-3.3,2.1c-1,1.5-2.4,3.8-2.9,5.4
		C2.2,13.5,3.7,16.2,6.9,16.3z M12.4,3c0.1,0.2,0.3,0.4,0.5,0.5c-0.3,0-0.7,0-1,0C12.1,3.4,12.2,3.3,12.4,3z"/>
</g>
</svg>
