<?xml version="1.0" encoding="utf-8"?>
<!-- Generator: Adobe Illustrator 16.0.4, SVG Export Plug-In . SVG Version: 6.00 Build 0)  -->
<!DOCTYPE svg PUBLIC "-//W3C//DTD SVG 1.1//EN" "http://www.w3.org/Graphics/SVG/1.1/DTD/svg11.dtd">
<svg version="1.1" id="Слой_1" xmlns="http://www.w3.org/2000/svg" xmlns:xlink="http://www.w3.org/1999/xlink" x="0px" y="0px"
	 width="32px" height="32px" viewBox="0 0 32 32" enable-background="new 0 0 32 32" xml:space="preserve">
<g>
	<path fill="#F7DA23" d="M17.9,7.7c0,0.9-0.8,1.7-1.7,1.7c-0.9,0-1.7-0.7-1.7-1.7c0-0.9,0.7-1.7,1.7-1.7C17.1,6,17.9,6.8,17.9,7.7z"
		/>
</g>
<path fill="#F7DA23" d="M31.6,23.2l-7.8-12l-0.1-0.1c-0.6-0.7-0.9-0.8-1-0.9c-0.1,0-0.3-0.1-0.9-0.2c0.4-1.1,0.7-2.1,0.7-2.8
	c0-3.3-2.8-6-6.4-6c-3.5,0-6.4,2.7-6.4,6c0,0.7,0.3,1.7,0.7,2.8c-0.3,0.1-0.5,0.1-0.7,0.2c-0.1,0-0.4,0.2-0.9,0.7L0.8,23
	c-0.8,1.4-0.6,2.1-0.4,2.5c0.5,0.9,1.5,1.1,2.3,1.1h25.9c0,0,0.1,0,0.3,0c1.3,0,2.2-0.4,2.7-1.2C32.2,24.5,31.7,23.5,31.6,23.2z
	 M16.1,3.8c2.1,0,3.7,1.6,3.7,3.6c0,1.7-2.6,6.4-3.1,7.4L16,16.1l-0.7-1.4c-0.5-1-2.9-5.7-2.9-7.3C12.4,5.4,14.1,3.8,16.1,3.8z
	 M3.8,23.8l7.2-11c0.1-0.1,0.2-0.1,0.4,0h0.1c1.2,2.9,2.8,5.8,3.2,6.7l1.2,2.3l1.2-2.2c0.5-0.9,2.2-3.9,3.5-6.8h0.5
	c0.1,0,0.2,0,0.3,0l0.1,0.1l7.1,10.9H3.8z"/>
</svg>
