<?xml version="1.0" encoding="utf-8"?>
<!-- Generator: Adobe Illustrator 16.0.4, SVG Export Plug-In . SVG Version: 6.00 Build 0)  -->
<!DOCTYPE svg PUBLIC "-//W3C//DTD SVG 1.1//EN" "http://www.w3.org/Graphics/SVG/1.1/DTD/svg11.dtd">
<svg version="1.1" id="Слой_1" xmlns="http://www.w3.org/2000/svg" xmlns:xlink="http://www.w3.org/1999/xlink" x="0px" y="0px"
	 width="32px" height="32px" viewBox="0 0 32 32" enable-background="new 0 0 32 32" xml:space="preserve">
<g>
	<path fill="#393938" d="M23.6,7H8.3C7.1,7,6.1,8,6.1,9.2v13.6c0,1.2,1,2.2,2.2,2.2h15.3c1.2,0,2.2-1,2.2-2.2V9.2
		C25.9,8,24.9,7,23.6,7z M15.4,22.8h-7v-6.1h7V22.8z M15.4,15h-7V9.3h7V15z M23.6,22.8H17v-6.1h6.6V22.8z M23.6,15H17V9.3h6.6V15z"
		/>
	<polygon fill="#393938" points="14.6,5.7 17.3,5.7 17.3,3.7 18.3,3.7 16,1.4 13.6,3.7 14.6,3.7 	"/>
	<polygon fill="#393938" points="17.3,26.4 14.6,26.4 14.6,28.3 13.6,28.3 16,30.7 18.3,28.3 17.3,28.3 	"/>
	<polygon fill="#393938" points="2.6,13.5 0.3,15.8 2.6,18.2 2.6,17.2 4.6,17.2 4.6,14.5 2.6,14.5 	"/>
	<polygon fill="#393938" points="31.7,15.8 29.4,13.5 29.4,14.5 27.4,14.5 27.4,17.2 29.4,17.2 29.4,18.2 	"/>
</g>
</svg>
